<?xml version="1.0" encoding="UTF-8"?>
<svg width="30px" height="30px" viewBox="0 0 30 30" version="1.1" xmlns="http://www.w3.org/2000/svg" xmlns:xlink="http://www.w3.org/1999/xlink">
    <title>icons / add-2</title>
    <g id="icons-/-add-2" stroke="none" stroke-width="1" fill="none" fill-rule="evenodd">
        <g>
            <rect id="Rectangle" fill-opacity="0" fill="#D8D8D8" x="0" y="0" width="30" height="30"></rect>
            <path d="M15,6 C15.5522847,6 16,6.44771525 16,7 L15.999,14 L23,14 C23.5522847,14 24,14.4477153 24,15 C24,15.5522847 23.5522847,16 23,16 L15.999,16 L16,23 C16,23.5522847 15.5522847,24 15,24 C14.4477153,24 14,23.5522847 14,23 L13.999,16 L7,16 C6.44771525,16 6,15.5522847 6,15 C6,14.4477153 6.44771525,14 7,14 L13.999,14 L14,7 C14,6.44771525 14.4477153,6 15,6 Z" id="Combined-Shape" fill="#003776"></path>
        </g>
    </g>
</svg>