<?xml version="1.0" encoding="UTF-8"?>
<svg width="30px" height="30px" viewBox="0 0 30 30" version="1.1" xmlns="http://www.w3.org/2000/svg" xmlns:xlink="http://www.w3.org/1999/xlink">
    <title>input / arrow</title>
    <g id="input-/-arrow" stroke="none" stroke-width="1" fill="none" fill-rule="evenodd">
        <g>
            <rect id="Rectangle" fill-opacity="0" fill="#D8D8D8" x="0" y="0" width="30" height="30"></rect>
            <path d="M14.8726433,18.7146693 L14.7541108,18.6864126 L14.7062552,18.6705308 C14.610438,18.6360005 14.5190615,18.5865333 14.4355259,18.5220294 L14.3410397,18.4391577 L8.84488715,12.9797973 C8.45305356,12.5905867 8.4509272,11.9574253 8.84013779,11.5655917 C9.1994091,11.2038991 9.76654383,11.1742648 10.1598572,11.4779706 L10.2543434,11.5608423 L15.046,16.32 L19.8371923,11.5608423 C20.2290259,11.1716317 20.8621873,11.1737581 21.2513979,11.5655917 C21.6106692,11.9272842 21.6364937,12.4946052 21.3301531,12.8858698 L21.2466486,12.9797973 L15.750496,18.4391577 C15.6657243,18.5233619 15.5696571,18.5892493 15.4672084,18.6368365 L15.3509632,18.6821882 L15.2523491,18.7082259 L15.2195244,18.7145527 C15.1806699,18.7213935 15.1411104,18.7259422 15.1014464,18.7281397 L14.9900893,18.7281397 C14.9507643,18.725961 14.911542,18.7214711 14.8726433,18.7146693 Z" id="Combined-Shape" fill="#161545" fill-rule="nonzero"></path>
        </g>
    </g>
</svg>