<?xml version="1.0" encoding="UTF-8"?>
<svg width="119px" height="107px" viewBox="0 0 119 107" version="1.1" xmlns="http://www.w3.org/2000/svg" xmlns:xlink="http://www.w3.org/1999/xlink">
    <title>icons / certificates</title>
    <defs>
        <circle id="path-1" cx="62" cy="55" r="35"></circle>
        <filter x="-25.0%" y="-17.9%" width="150.0%" height="150.0%" filterUnits="objectBoundingBox" id="filter-2">
            <feOffset dx="0" dy="5" in="SourceAlpha" result="shadowOffsetOuter1"></feOffset>
            <feGaussianBlur stdDeviation="5" in="shadowOffsetOuter1" result="shadowBlurOuter1"></feGaussianBlur>
            <feColorMatrix values="0 0 0 0 1   0 0 0 0 0.487106643   0 0 0 0 0  0 0 0 0.25 0" type="matrix" in="shadowBlurOuter1"></feColorMatrix>
        </filter>
        <path d="M0,0 L117,0 L97,55 C97,74.3299662 81.3299662,90 62,90 C42.6700338,90 27,74.3299662 27,55 L27,55 L0,0 Z" id="path-3"></path>
        <path d="M2.5638852,-1.03584031e-16 L47.4361148,2.10690669e-15 C48.3276335,-1.22417346e-15 48.6509198,0.0928256111 48.9768457,0.267132704 C49.3027716,0.441439796 49.5585602,0.697228371 49.7328673,1.0231543 C49.9071744,1.34908022 50,1.67236646 50,2.5638852 L50,67.4361148 C50,68.3276335 49.9071744,68.6509198 49.7328673,68.9768457 C49.5585602,69.3027716 49.3027716,69.5585602 48.9768457,69.7328673 C48.6509198,69.9071744 48.3276335,70 47.4361148,70 L2.5638852,70 C1.67236646,70 1.34908022,69.9071744 1.0231543,69.7328673 C0.697228371,69.5585602 0.441439796,69.3027716 0.267132704,68.9768457 C0.0928256111,68.6509198 4.01235366e-17,68.3276335 -6.90560205e-17,67.4361148 L6.90560205e-17,2.5638852 C-4.01235366e-17,1.67236646 0.0928256111,1.34908022 0.267132704,1.0231543 C0.441439796,0.697228371 0.697228371,0.441439796 1.0231543,0.267132704 C1.34908022,0.0928256111 1.67236646,6.01853049e-17 2.5638852,-1.03584031e-16 Z" id="path-5"></path>
        <filter x="-14.0%" y="-7.1%" width="128.0%" height="120.0%" filterUnits="objectBoundingBox" id="filter-6">
            <feOffset dx="0" dy="2" in="SourceAlpha" result="shadowOffsetOuter1"></feOffset>
            <feGaussianBlur stdDeviation="2" in="shadowOffsetOuter1" result="shadowBlurOuter1"></feGaussianBlur>
            <feColorMatrix values="0 0 0 0 0   0 0 0 0 0   0 0 0 0 0  0 0 0 0.2 0" type="matrix" in="shadowBlurOuter1"></feColorMatrix>
        </filter>
        <circle id="path-7" cx="7" cy="7" r="7"></circle>
        <filter x="-39.3%" y="-39.3%" width="192.9%" height="192.9%" filterUnits="objectBoundingBox" id="filter-8">
            <feOffset dx="1" dy="1" in="SourceAlpha" result="shadowOffsetOuter1"></feOffset>
            <feMorphology radius="4" operator="erode" in="SourceAlpha" result="shadowInner"></feMorphology>
            <feOffset dx="1" dy="1" in="shadowInner" result="shadowInner"></feOffset>
            <feComposite in="shadowOffsetOuter1" in2="shadowInner" operator="out" result="shadowOffsetOuter1"></feComposite>
            <feGaussianBlur stdDeviation="2" in="shadowOffsetOuter1" result="shadowBlurOuter1"></feGaussianBlur>
            <feColorMatrix values="0 0 0 0 1   0 0 0 0 0.815686275   0 0 0 0 0.239215686  0 0 0 0.445831512 0" type="matrix" in="shadowBlurOuter1"></feColorMatrix>
        </filter>
        <path d="M2.5638852,-1.03584031e-16 L47.4361148,1.03584031e-16 C48.3276335,-6.01853049e-17 48.6509198,0.0928256111 48.9768457,0.267132704 C49.3027716,0.441439796 49.5585602,0.697228371 49.7328673,1.0231543 C49.9071744,1.34908022 50,1.67236646 50,2.5638852 L50,72.4361148 C50,73.3276335 49.9071744,73.6509198 49.7328673,73.9768457 C49.5585602,74.3027716 49.3027716,74.5585602 48.9768457,74.7328673 C48.6509198,74.9071744 48.3276335,75 47.4361148,75 L2.5638852,75 C1.67236646,75 1.34908022,74.9071744 1.0231543,74.7328673 C0.697228371,74.5585602 0.441439796,74.3027716 0.267132704,73.9768457 C0.0928256111,73.6509198 4.01235366e-17,73.3276335 -6.90560205e-17,72.4361148 L6.90560205e-17,2.5638852 C-4.01235366e-17,1.67236646 0.0928256111,1.34908022 0.267132704,1.0231543 C0.441439796,0.697228371 0.697228371,0.441439796 1.0231543,0.267132704 C1.34908022,0.0928256111 1.67236646,6.01853049e-17 2.5638852,-1.03584031e-16 Z" id="path-9"></path>
        <filter x="-14.0%" y="-6.7%" width="128.0%" height="118.7%" filterUnits="objectBoundingBox" id="filter-10">
            <feOffset dx="0" dy="2" in="SourceAlpha" result="shadowOffsetOuter1"></feOffset>
            <feGaussianBlur stdDeviation="2" in="shadowOffsetOuter1" result="shadowBlurOuter1"></feGaussianBlur>
            <feColorMatrix values="0 0 0 0 0   0 0 0 0 0   0 0 0 0 0  0 0 0 0.2 0" type="matrix" in="shadowBlurOuter1"></feColorMatrix>
        </filter>
        <circle id="path-11" cx="7" cy="7" r="7"></circle>
        <filter x="-39.3%" y="-39.3%" width="192.9%" height="192.9%" filterUnits="objectBoundingBox" id="filter-12">
            <feOffset dx="1" dy="1" in="SourceAlpha" result="shadowOffsetOuter1"></feOffset>
            <feMorphology radius="4" operator="erode" in="SourceAlpha" result="shadowInner"></feMorphology>
            <feOffset dx="1" dy="1" in="shadowInner" result="shadowInner"></feOffset>
            <feComposite in="shadowOffsetOuter1" in2="shadowInner" operator="out" result="shadowOffsetOuter1"></feComposite>
            <feGaussianBlur stdDeviation="2" in="shadowOffsetOuter1" result="shadowBlurOuter1"></feGaussianBlur>
            <feColorMatrix values="0 0 0 0 1   0 0 0 0 0.815686275   0 0 0 0 0.239215686  0 0 0 0.445831512 0" type="matrix" in="shadowBlurOuter1"></feColorMatrix>
        </filter>
    </defs>
    <g id="О-компании" stroke="none" stroke-width="1" fill="none" fill-rule="evenodd">
        <g id="Previews-/-About-/-About-(Laptop)" transform="translate(-892.000000, -549.000000)">
            <g id="Сертификаты-(якорь)" transform="translate(892.500000, 549.500000)">
                <g id="icons-/-certificates" transform="translate(0.500000, 0.500000)">
                    <g id="Oval">
                        <use fill="black" fill-opacity="1" filter="url(#filter-2)" xlink:href="#path-1"></use>
                        <use fill="#FFD03D" fill-rule="evenodd" xlink:href="#path-1"></use>
                    </g>
                    <mask id="mask-4" fill="white">
                        <use xlink:href="#path-3"></use>
                    </mask>
                    <use id="Oval-Copy-2" fill-opacity="0" fill="#FFFFFF" xlink:href="#path-3"></use>
                    <g id="Group-5" mask="url(#mask-4)">
                        <g transform="translate(69.000000, 45.000000) rotate(-345.000000) translate(-69.000000, -45.000000) translate(44.000000, 10.000000)">
                            <g id="Rectangle" fill="none">
                                <use fill="black" fill-opacity="1" filter="url(#filter-6)" xlink:href="#path-5"></use>
                                <use fill="#F1F1F1" fill-rule="evenodd" xlink:href="#path-5"></use>
                            </g>
                            <g id="Group-3" stroke-width="1" fill="none" fill-rule="evenodd" transform="translate(28.000000, 41.000000)">
                                <polygon id="Rectangle" fill="#F22248" points="3 10 11 10 11 25 7 20.9969252 3 25"></polygon>
                                <g id="Oval">
                                    <use fill="black" fill-opacity="1" filter="url(#filter-8)" xlink:href="#path-7"></use>
                                    <circle stroke="#FFD800" stroke-width="4" stroke-linejoin="square" cx="7" cy="7" r="5"></circle>
                                </g>
                            </g>
                            <path d="M35,33 C35.5522847,33 36,33.4477153 36,34 C36,34.5522847 35.5522847,35 35,35 L9,35 C8.44771525,35 8,34.5522847 8,34 C8,33.4477153 8.44771525,33 9,33 L35,33 Z M22,26 C22.5522847,26 23,26.4477153 23,27 C23,27.5522847 22.5522847,28 22,28 L9,28 C8.44771525,28 8,27.5522847 8,27 C8,26.4477153 8.44771525,26 9,26 L22,26 Z M35,19 C35.5522847,19 36,19.4477153 36,20 C36,20.5522847 35.5522847,21 35,21 L9,21 C8.44771525,21 8,20.5522847 8,20 C8,19.4477153 8.44771525,19 9,19 L35,19 Z M40,12 C40.5522847,12 41,12.4477153 41,13 C41,13.5522847 40.5522847,14 40,14 L9,14 C8.44771525,14 8,13.5522847 8,13 C8,12.4477153 8.44771525,12 9,12 L40,12 Z" id="Combined-Shape" fill="#CECECE" fill-rule="evenodd"></path>
                        </g>
                    </g>
                    <g id="Group-5-Copy" mask="url(#mask-4)">
                        <g transform="translate(57.647048, 57.414815) rotate(-15.000000) translate(-57.647048, -57.414815) translate(32.647048, 19.914815)">
                            <g id="Rectangle" fill="none">
                                <use fill="black" fill-opacity="1" filter="url(#filter-10)" xlink:href="#path-9"></use>
                                <use fill="#F1F1F1" fill-rule="evenodd" xlink:href="#path-9"></use>
                            </g>
                            <g id="Group-3" stroke-width="1" fill="none" fill-rule="evenodd" transform="translate(28.000000, 41.000000)">
                                <polygon id="Rectangle" fill="#F22248" points="3 10 11 10 11 25 7 20.9969252 3 25"></polygon>
                                <g id="Oval">
                                    <use fill="black" fill-opacity="1" filter="url(#filter-12)" xlink:href="#path-11"></use>
                                    <circle stroke="#FFD800" stroke-width="4" stroke-linejoin="square" cx="7" cy="7" r="5"></circle>
                                </g>
                            </g>
                            <path d="M35,33 C35.5522847,33 36,33.4477153 36,34 C36,34.5522847 35.5522847,35 35,35 L9,35 C8.44771525,35 8,34.5522847 8,34 C8,33.4477153 8.44771525,33 9,33 L35,33 Z M22,26 C22.5522847,26 23,26.4477153 23,27 C23,27.5522847 22.5522847,28 22,28 L9,28 C8.44771525,28 8,27.5522847 8,27 C8,26.4477153 8.44771525,26 9,26 L22,26 Z M35,19 C35.5522847,19 36,19.4477153 36,20 C36,20.5522847 35.5522847,21 35,21 L9,21 C8.44771525,21 8,20.5522847 8,20 C8,19.4477153 8.44771525,19 9,19 L35,19 Z M40,12 C40.5522847,12 41,12.4477153 41,13 C41,13.5522847 40.5522847,14 40,14 L9,14 C8.44771525,14 8,13.5522847 8,13 C8,12.4477153 8.44771525,12 9,12 L40,12 Z" id="Combined-Shape" fill="#CECECE" fill-rule="evenodd"></path>
                        </g>
                    </g>
                </g>
            </g>
        </g>
    </g>
</svg>