<?xml version="1.0" encoding="UTF-8"?>
<svg width="30px" height="30px" viewBox="0 0 30 30" version="1.1" xmlns="http://www.w3.org/2000/svg" xmlns:xlink="http://www.w3.org/1999/xlink">
    <title>icons / clock / outlined</title>
    <g id="icons-/-clock-/-outlined" stroke="none" stroke-width="1" fill="none" fill-rule="evenodd">
        <g>
            <rect id="Rectangle" fill-opacity="0" fill="#D8D8D8" x="0" y="0" width="30" height="30"></rect>
            <path d="M15.3841166,26 C-0.0133059907,26 0.683585466,4 15.13789,4 C29.5368936,4.00025023 29.4463102,26 15.3841166,26 Z M15.1176213,5.56869391 C2.724464,5.56869391 2.12691398,24.4318065 15.3288157,24.4318065 C27.3864142,24.4318065 27.4642358,5.56869391 15.1176213,5.56869391 Z M23.0481711,16.1141505 L20.364701,16.6103573 L20.1164726,14.6848349 L23.0481711,14.6848349 L23.0481711,16.1141505 L23.0481711,16.1141505 Z M14.1712502,17.2874805 L10.6319925,13.5117551 L11.3811821,12.6006665 L14.9772421,14.5579681 L21.201221,9.65120167 L21.7312088,10.3573517 L15.8197676,17.0953036 L14.1712502,17.2874805 Z M15.0445541,7.42665408 L16.6690494,7.29628408 L16.7894101,10.3130609 L15.1308835,10.2324867 L15.0445541,7.42665408 Z M13.1027668,7.42665408 L14.129712,7.42665408 L14.3779405,10.3130609 L12.8547885,10.0650826 L13.1027668,7.42665408 Z M6.99939889,15.1810416 L9.88655638,14.6848349 L10.1345346,16.6446388 L7.24762737,16.6446388 L6.99939889,15.1810416 Z M16.2193855,22.8183214 L14.7612934,23.2244452 L14.2650866,20.3718195 L16.2193855,20.2141744 L16.2193855,22.8183214 Z" id="Shape" fill="#003776" fill-rule="nonzero"></path>
        </g>
    </g>
</svg>