<?xml version="1.0" encoding="UTF-8"?>
<svg width="30px" height="30px" viewBox="0 0 30 30" version="1.1" xmlns="http://www.w3.org/2000/svg" xmlns:xlink="http://www.w3.org/1999/xlink">
    <title>icons / cross</title>
    <g id="icons-/-cross" stroke="none" stroke-width="1" fill="none" fill-rule="evenodd">
        <g>
            <rect id="Rectangle" fill-opacity="0" fill="#D8D8D8" x="0" y="0" width="30" height="30"></rect>
            <path d="M9.61289944,8.20970461 L9.70710678,8.29289322 L15,13.585 L20.2928932,8.29289322 C20.6834175,7.90236893 21.3165825,7.90236893 21.7071068,8.29289322 C22.0675907,8.65337718 22.0953203,9.22060824 21.7902954,9.61289944 L21.7071068,9.70710678 L16.415,15 L21.7071068,20.2928932 C22.0976311,20.6834175 22.0976311,21.3165825 21.7071068,21.7071068 C21.3466228,22.0675907 20.7793918,22.0953203 20.3871006,21.7902954 L20.2928932,21.7071068 L15,16.415 L9.70710678,21.7071068 C9.31658249,22.0976311 8.68341751,22.0976311 8.29289322,21.7071068 C7.93240926,21.3466228 7.90467972,20.7793918 8.20970461,20.3871006 L8.29289322,20.2928932 L13.585,15 L8.29289322,9.70710678 C7.90236893,9.31658249 7.90236893,8.68341751 8.29289322,8.29289322 C8.62333685,7.96244959 9.12750547,7.91161211 9.51140295,8.14038077 L9.61289944,8.20970461 Z" id="Combined-Shape" fill="#161545" fill-rule="nonzero"></path>
        </g>
    </g>
</svg>