<?xml version="1.0" encoding="UTF-8"?>
<svg width="80px" height="100px" viewBox="0 0 80 100" version="1.1" xmlns="http://www.w3.org/2000/svg" xmlns:xlink="http://www.w3.org/1999/xlink">
    <title>icons / docs</title>
    <defs>
        <path d="M32.5638852,-1.03584031e-16 L67.4361148,1.03584031e-16 C68.3276335,-6.01853049e-17 68.6509198,0.0928256111 68.9768457,0.267132704 C69.3027716,0.441439796 69.5585602,0.697228371 69.7328673,1.0231543 C69.9071744,1.34908022 70,1.67236646 70,2.5638852 L70,57.4361148 C70,58.3276335 69.9071744,58.6509198 69.7328673,58.9768457 C69.5585602,59.3027716 69.3027716,59.5585602 68.9768457,59.7328673 C68.6509198,59.9071744 68.3276335,60 67.4361148,60 L32.5638852,60 C31.6723665,60 31.3490802,59.9071744 31.0231543,59.7328673 C30.6972284,59.5585602 30.4414398,59.3027716 30.2671327,58.9768457 C30.0928256,58.6509198 30,58.3276335 30,57.4361148 L30,2.5638852 C30,1.67236646 30.0928256,1.34908022 30.2671327,1.0231543 C30.4414398,0.697228371 30.6972284,0.441439796 31.0231543,0.267132704 C31.3490802,0.0928256111 31.6723665,6.01853049e-17 32.5638852,-1.03584031e-16 Z" id="path-1"></path>
        <filter x="-48.8%" y="-14.2%" width="172.5%" height="156.7%" filterUnits="objectBoundingBox" id="filter-2">
            <feOffset dx="-5" dy="11" in="SourceAlpha" result="shadowOffsetOuter1"></feOffset>
            <feGaussianBlur stdDeviation="3" in="shadowOffsetOuter1" result="shadowBlurOuter1"></feGaussianBlur>
            <feColorMatrix values="0 0 0 0 0   0 0 0 0 0   0 0 0 0 0  0 0 0 0.15 0" type="matrix" in="shadowBlurOuter1"></feColorMatrix>
        </filter>
    </defs>
    <g id="Главная-v8" stroke="none" stroke-width="1" fill="none" fill-rule="evenodd">
        <g id="Previews-/-Main-/-Main-(Laptop)" transform="translate(-620.000000, -3710.000000)">
            <g id="Пятый-экран-(сертификаты)" transform="translate(0.000000, 3050.000000)">
                <g id="Group-4" transform="translate(600.000000, 650.000000)">
                    <g id="icons-/-docs" transform="translate(20.000000, 10.000000)">
                        <circle id="Oval" fill="#FFD03D" cx="40" cy="50" r="40"></circle>
                        <path d="M13.8458278,40 L46.1541722,40 C47.4914503,40 47.9763797,40.1392384 48.4652686,40.4006991 C48.9541574,40.6621597 49.3378403,41.0458426 49.5993009,41.5347314 C49.8607616,42.0236203 50,42.5085497 50,43.8458278 L50,96.1541722 C50,97.4914503 49.8607616,97.9763797 49.5993009,98.4652686 C49.3378403,98.9541574 48.9541574,99.3378403 48.4652686,99.5993009 C47.9763797,99.8607616 47.4914503,100 46.1541722,100 L13.8458278,100 C12.5085497,100 12.0236203,99.8607616 11.5347314,99.5993009 C11.0458426,99.3378403 10.6621597,98.9541574 10.4006991,98.4652686 C10.1392384,97.9763797 10,97.4914503 10,96.1541722 L10,43.8458278 C10,42.5085497 10.1392384,42.0236203 10.4006991,41.5347314 C10.6621597,41.0458426 11.0458426,40.6621597 11.5347314,40.4006991 C12.0236203,40.1392384 12.5085497,40 13.8458278,40 Z" id="Rectangle" fill="#F2F2F2"></path>
                        <path d="M37,85 C37.5522847,85 38,85.4477153 38,86 C38,86.5522847 37.5522847,87 37,87 L19,87 C18.4477153,87 18,86.5522847 18,86 C18,85.4477153 18.4477153,85 19,85 L37,85 Z M27,77 C27.5522847,77 28,77.4477153 28,78 C28,78.5522847 27.5522847,79 27,79 L19,79 C18.4477153,79 18,78.5522847 18,78 C18,77.4477153 18.4477153,77 19,77 L27,77 Z M33,69 C33.5522847,69 34,69.4477153 34,70 C34,70.5522847 33.5522847,71 33,71 L19,71 C18.4477153,71 18,70.5522847 18,70 C18,69.4477153 18.4477153,69 19,69 L33,69 Z M30,61 C30.5522847,61 31,61.4477153 31,62 C31,62.5522847 30.5522847,63 30,63 L19,63 C18.4477153,63 18,62.5522847 18,62 C18,61.4477153 18.4477153,61 19,61 L30,61 Z M40,53 C40.5522847,53 41,53.4477153 41,54 C41,54.5522847 40.5522847,55 40,55 L19,55 C18.4477153,55 18,54.5522847 18,54 C18,53.4477153 18.4477153,53 19,53 L40,53 Z" id="Combined-Shape" fill="#D8D8D8"></path>
                        <g id="Rectangle-Copy-10">
                            <use fill="black" fill-opacity="1" filter="url(#filter-2)" xlink:href="#path-1"></use>
                            <use fill="#F2F2F2" fill-rule="evenodd" xlink:href="#path-1"></use>
                        </g>
                        <path d="M57,45 C57.5522847,45 58,45.4477153 58,46 C58,46.5522847 57.5522847,47 57,47 L39,47 C38.4477153,47 38,46.5522847 38,46 C38,45.4477153 38.4477153,45 39,45 L57,45 Z M47,37 C47.5522847,37 48,37.4477153 48,38 C48,38.5522847 47.5522847,39 47,39 L39,39 C38.4477153,39 38,38.5522847 38,38 C38,37.4477153 38.4477153,37 39,37 L47,37 Z M53,29 C53.5522847,29 54,29.4477153 54,30 C54,30.5522847 53.5522847,31 53,31 L39,31 C38.4477153,31 38,30.5522847 38,30 C38,29.4477153 38.4477153,29 39,29 L53,29 Z M50,21 C50.5522847,21 51,21.4477153 51,22 C51,22.5522847 50.5522847,23 50,23 L39,23 C38.4477153,23 38,22.5522847 38,22 C38,21.4477153 38.4477153,21 39,21 L50,21 Z M60,13 C60.5522847,13 61,13.4477153 61,14 C61,14.5522847 60.5522847,15 60,15 L39,15 C38.4477153,15 38,14.5522847 38,14 C38,13.4477153 38.4477153,13 39,13 L60,13 Z" id="Combined-Shape" fill="#D8D8D8"></path>
                    </g>
                </g>
            </g>
        </g>
    </g>
</svg>