<?xml version="1.0" encoding="UTF-8"?>
<svg width="30px" height="30px" viewBox="0 0 30 30" version="1.1" xmlns="http://www.w3.org/2000/svg" xmlns:xlink="http://www.w3.org/1999/xlink">
    <title>icons / earth / outlined</title>
    <g id="icons-/-earth-/-outlined" stroke="none" stroke-width="1" fill="none" fill-rule="evenodd">
        <g>
            <rect id="Rectangle" fill-opacity="0" fill="#D8D8D8" x="0.266666667" y="0.5" width="30" height="30"></rect>
            <path d="M15.6571837,26.6990894 C-0.0133446267,26.6990894 0.694225756,4.30791056 15.4035742,4.30791056 C30.0622008,4.30791056 29.9759735,26.6990894 15.6571837,26.6990894 Z M15.3883576,5.81179469 C14.6805589,5.81049118 13.9741718,5.87501693 13.278327,6.00455783 L13.547153,7.54396722 L10.3263129,9.82645233 L7.49856746,9.6514618 C7.22016509,10.0412213 6.97175916,10.4515573 6.75549175,10.8789316 L7.34893788,16.4304426 L9.09377094,18.6723502 L7.30328818,21.2084447 C8.89849166,23.5441878 11.6476182,25.1951854 15.6039257,25.1951854 C21.2999941,25.1951854 24.3914933,21.0968566 24.8403821,16.6713715 L23.5038602,15.4565823 L21.5434591,14.7109704 L21.2239112,15.1953645 L21.9847396,15.9942343 L22.5731135,16.0829976 L22.826723,16.9351254 L20.975374,17.8709443 L19.7073267,15.6620059 L19.2685823,16.656155 L20.22469,18.7585774 L21.3989017,19.1009501 L19.5069752,20.115388 L17.0418913,23.6507038 L14.9470772,23.8155499 L14.4880441,21.7866743 L14.835489,18.7966188 L12.4338075,18.157523 L11.642546,16.2605242 L12.0204241,14.4345361 L14.3029092,13.4987173 L16.4611256,14.7337953 L17.5998321,14.3609894 L19.2964794,14.8200225 L19.6819657,12.6567339 L17.4983883,11.9339469 L17.4730274,13.3440155 L16.0857836,13.2806131 L15.9665872,11.7893895 L14.2521873,12.1672676 L14.3815281,10.8561067 L13.6511329,10.0090511 L14.7619423,8.99461331 L16.5676416,10.0090511 L17.1331907,8.80947841 L18.563548,8.20081571 L19.5171196,8.62180741 L20.4859077,8.42652813 L20.9043633,7.41209031 C19.4511811,6.41286905 17.6175848,5.81179469 15.3883576,5.81179469 Z" id="Shape" fill="#003776" fill-rule="nonzero"></path>
        </g>
    </g>
</svg>