<?xml version="1.0" encoding="UTF-8"?>
<svg width="30px" height="30px" viewBox="0 0 30 30" version="1.1" xmlns="http://www.w3.org/2000/svg" xmlns:xlink="http://www.w3.org/1999/xlink">
    <title>Shape</title>
    <g id="Symbols" stroke="none" stroke-width="1" fill="none" fill-rule="evenodd">
        <g id="modules-/-photo" transform="translate(-40.000000, -192.000000)" fill="#FFFFFF" fill-rule="nonzero">
            <g transform="translate(0.000000, 5.000000)" id="zoom">
                <g transform="translate(40.000000, 187.000000)">
                    <path d="M2,22 C2,25.2383969 4.56557489,27.8775718 7.77506174,27.9958615 L8,28 L8,30 C3.581722,30 0,26.418278 0,22 L2,22 Z M30,22 C30,26.418278 26.418278,30 22,30 L22,28 C25.2383969,28 27.8775718,25.4344251 27.9958615,22.2249383 L28,22 L30,22 Z M12.5,5 C16.6421356,5 20,8.35786438 20,12.5 C20,14.1506959 19.4667281,15.6768395 18.5630645,16.9155507 L24.6677053,23.020002 C25.0582296,23.4105263 25.0582296,24.0436913 24.6677053,24.4342156 C24.3072213,24.7946995 23.7399902,24.8224291 23.347699,24.5174042 L23.2534917,24.4342156 L17.1803889,18.3607287 C15.8974868,19.3865965 14.2703774,20 12.5,20 C8.35786438,20 5,16.6421356 5,12.5 C5,8.35786438 8.35786438,5 12.5,5 Z M12.5,7 C9.46243388,7 7,9.46243388 7,12.5 C7,15.5375661 9.46243388,18 12.5,18 C15.5375661,18 18,15.5375661 18,12.5 C18,9.46243388 15.5375661,7 12.5,7 Z M22,0 C26.418278,0 30,3.581722 30,8 L28,8 C28,4.76160306 25.4344251,2.12242824 22.2249383,2.00413847 L22,2 L22,0 Z M8,0 L8,2 C4.76160306,2 2.12242824,4.56557489 2.00413847,7.77506174 L2,8 L0,8 C0,3.581722 3.581722,0 8,0 Z" id="Shape"></path>
                </g>
            </g>
        </g>
    </g>
</svg>