<svg width="238" height="43" viewBox="0 0 238 43" fill="none" xmlns="http://www.w3.org/2000/svg">
<path d="M61.1706 17.9268C62.2793 16.8446 63.0987 15.433 63.0505 12.0453V4.28172H68.9314V19.1031H73.5108V0.47052H73.1251H58.4712V11.2924C58.4712 11.6689 58.4712 12.0453 58.4712 12.3746C58.4712 13.7391 58.3748 14.7272 57.8445 15.2448C57.4107 15.7153 56.784 15.9035 55.7718 15.9035H55.4343V19.2913L55.7718 19.3383C56.1092 19.3854 56.543 19.4324 57.0251 19.4324C58.2784 19.4324 59.9173 19.1501 61.1706 17.9268Z" fill="#003776"/>
<path d="M150.541 12.8452L151.938 11.4807L157.434 19.1031H163.315L155.168 8.18703L163.074 0.47052H157L150.541 7.15189V0.47052H145.961V19.1031H150.541V12.8452Z" fill="#003776"/>
<ellipse cx="167.903" cy="17.3855" rx="2.14221" ry="2.10209" fill="#003776"/>
<path d="M177.273 12.8452L178.671 11.4807L184.166 19.1031H190.047L181.901 8.18703L189.806 0.47052H183.733L177.273 7.15189V0.47052H172.694V19.1031H177.273V12.8452Z" fill="#003776"/>
<path d="M208.267 19.1031V14.7373H198.232L208.267 4.22561V0.47052H191.795V4.8363H201.85L191.477 15.348V19.1031H208.267Z" fill="#003776"/>
<path d="M91.8284 15.2919H81.7056V11.1042H90.6233V7.24599H81.7056V4.32877H91.4428V0.47052H91.0571H77.1262V19.1031H91.8284V15.2919Z" fill="#003776"/>
<path fill-rule="evenodd" clip-rule="evenodd" d="M102.385 19.6206C101.083 19.6206 98.8178 19.3383 96.8415 17.9738C94.8169 16.6093 93.178 14.0685 93.1298 9.78679C93.1298 5.50507 94.8169 3.01132 96.7933 1.64682C98.8178 0.282311 101.083 0 102.337 0C103.638 0 105.904 0.282311 107.928 1.69387C109.953 3.05837 111.592 5.55212 111.592 9.83384C111.592 14.1156 109.905 16.6093 107.928 17.9738C105.904 19.3383 103.638 19.6206 102.385 19.6206ZM106.916 9.78679C106.868 4.94045 104.265 3.95236 102.337 3.9053C100.457 3.95236 97.8056 4.94045 97.7574 9.78679C97.8056 14.6331 100.409 15.6212 102.337 15.6683C104.265 15.6212 106.868 14.6331 106.916 9.78679Z" fill="#003776"/>
<path d="M116.942 19.1031H121.522V18.7266V4.32877H127.065V0.47052H111.399V4.32877H116.942V19.1031Z" fill="#003776"/>
<path d="M133.525 11.1042H142.442V7.24599H133.525V4.32877H143.214V0.47052H142.828H128.897V19.1031H143.647V15.2919H133.525V11.1042Z" fill="#003776"/>
<path d="M15.0878 13.3157C15.0878 11.4807 13.5453 10.022 11.7135 10.022H0V35.6653C0 38.2061 2.12097 40.4176 4.72398 40.4646H23.3789L30.031 32.9834H15.0878V13.3157Z" fill="#003776"/>
<path d="M15.0396 7.90471H27.9582C29.1151 7.90471 30.0309 8.79869 30.0309 9.92794V27.9018C30.0791 29.5486 31.4289 30.866 33.116 30.866H45.1187V0.423462H21.6917L15.0396 7.90471Z" fill="#003776"/>
<path fill-rule="evenodd" clip-rule="evenodd" d="M70.6233 30.1466C70.1774 30.6802 69.5459 30.947 68.7288 30.947C68.2915 30.947 67.9118 30.8736 67.5895 30.7268C67.2673 30.58 67.0012 30.371 66.7912 30.1C66.5811 29.829 66.4243 29.5043 66.3208 29.1261C66.2172 28.7478 66.1654 28.3271 66.1654 27.8641C66.1654 26.876 66.3869 26.1152 66.83 25.5816C67.2731 25.0481 67.906 24.7813 68.7288 24.7813C69.1604 24.7813 69.5373 24.8547 69.8595 25.0015C70.1817 25.1483 70.4493 25.3572 70.6622 25.6282C70.8751 25.8992 71.0333 26.2239 71.1369 26.6022C71.2404 26.9805 71.2922 27.4011 71.2922 27.8641C71.2922 28.8522 71.0693 29.613 70.6233 30.1466ZM62.4886 28.7873V30.8284H61.3061V24.9591C61.5478 24.914 61.8139 24.8787 62.1045 24.8533C62.3951 24.8279 62.6842 24.8152 62.9719 24.8152C63.2711 24.8152 63.5718 24.8392 63.8738 24.8871C64.1759 24.9351 64.4478 25.0311 64.6895 25.1751C64.9311 25.3191 65.1282 25.5195 65.2807 25.7764C65.4332 26.0333 65.5094 26.3679 65.5094 26.78C65.5094 27.1527 65.4433 27.4675 65.3109 27.7244C65.1786 27.9813 65.0031 28.1916 64.7844 28.3553C64.5658 28.5191 64.3169 28.6377 64.0378 28.7111C63.7588 28.7845 63.4696 28.8212 63.1704 28.8212H63.0323C62.969 28.8212 62.9029 28.8197 62.8338 28.8169C62.7648 28.8141 62.6972 28.8099 62.631 28.8042C62.5648 28.7986 62.5173 28.7929 62.4886 28.7873ZM56.7662 25.9331V30.8284H55.5837V24.8999H60.0632V30.8284H58.8808V25.9331H56.7662ZM62.9978 27.8133H62.8899C62.841 27.8133 62.7906 27.8119 62.7389 27.8091C62.6871 27.8062 62.6382 27.802 62.5921 27.7964C62.5461 27.7907 62.5116 27.7851 62.4886 27.7794V25.8569C62.5518 25.8456 62.6353 25.8357 62.7389 25.8272C62.8424 25.8188 62.9518 25.8145 63.0668 25.8145C63.2164 25.8145 63.3632 25.8287 63.507 25.8569C63.6509 25.8851 63.7789 25.9359 63.8911 26.0093C64.0033 26.0827 64.0939 26.1801 64.163 26.3015C64.232 26.4229 64.2665 26.5768 64.2665 26.7631C64.2665 26.9833 64.2306 27.1612 64.1587 27.2967C64.0867 27.4322 63.9904 27.538 63.8695 27.6143C63.7487 27.6905 63.612 27.7427 63.4595 27.771C63.3071 27.7992 63.1531 27.8133 62.9978 27.8133ZM68.7288 29.9137C68.4986 29.9137 68.3001 29.8629 68.1332 29.7613C67.9664 29.6596 67.8297 29.5185 67.7232 29.3378C67.6168 29.1571 67.5377 28.9411 67.4859 28.6899C67.4341 28.4386 67.4082 28.1634 67.4082 27.8641C67.4082 27.1583 67.5233 26.6403 67.7535 26.31C67.9836 25.9797 68.3087 25.8145 68.7288 25.8145C68.9704 25.8145 69.1747 25.8668 69.3416 25.9712C69.5084 26.0757 69.6437 26.2211 69.7472 26.4074C69.8508 26.5937 69.927 26.8111 69.9759 27.0595C70.0249 27.308 70.0493 27.5762 70.0493 27.8641C70.0493 28.5868 69.9342 29.1091 69.7041 29.4309C69.4739 29.7528 69.1488 29.9137 68.7288 29.9137ZM75.4869 27.5677L73.2342 30.8284H72.3452V24.8999H73.5276V28.1267L73.4413 28.9228H73.4931L73.916 28.1013L76.1687 24.8999H77.0491V30.8284H75.8667V27.5423L75.9357 26.7716H75.8925L75.4869 27.5677ZM79.6902 30.947C79.9837 30.947 80.2714 30.9117 80.5533 30.8411C80.8352 30.7705 81.0841 30.6618 81.2999 30.515C81.5157 30.3682 81.6897 30.1805 81.8221 29.9518C81.9544 29.7231 82.0206 29.4479 82.0206 29.1261C82.0206 28.7195 81.9156 28.3949 81.7055 28.1521C81.4955 27.9093 81.2035 27.7512 80.8295 27.6778V27.6354C81.1805 27.5225 81.4351 27.3418 81.5933 27.0934C81.7516 26.845 81.8307 26.574 81.8307 26.2804C81.8307 25.9868 81.7731 25.7454 81.6581 25.5562C81.543 25.3671 81.3905 25.216 81.2006 25.1031C81.0107 24.9902 80.795 24.9111 80.5533 24.866C80.3116 24.8208 80.0642 24.7982 79.811 24.7982C79.6269 24.7982 79.4457 24.8095 79.2673 24.8321C79.0889 24.8547 78.9235 24.8843 78.771 24.921C78.6185 24.9577 78.4833 24.9958 78.3653 25.0354C78.2474 25.0749 78.1568 25.1116 78.0935 25.1455L78.3955 26.1279C78.5106 26.0658 78.6804 26.0009 78.9048 25.9331C79.1292 25.8654 79.3709 25.8315 79.6298 25.8315C79.9175 25.8315 80.1491 25.8809 80.3246 25.9797C80.5001 26.0785 80.5878 26.2634 80.5878 26.5344C80.5878 26.7321 80.5159 26.8887 80.3721 27.0045C80.2282 27.1202 80.0556 27.2007 79.8542 27.2459C79.8082 27.2572 79.7477 27.267 79.6729 27.2755C79.5981 27.284 79.5219 27.2896 79.4442 27.2924C79.3665 27.2953 79.2903 27.2967 79.2155 27.2967H78.8185V28.2029H79.2328C79.2673 28.2029 79.3191 28.2057 79.3881 28.2114C79.906 28.2227 80.2656 28.2961 80.467 28.4316C80.6684 28.5671 80.7691 28.7675 80.7691 29.0329C80.7691 29.191 80.7374 29.3265 80.6741 29.4394C80.6108 29.5523 80.5274 29.6441 80.4238 29.7147C80.3203 29.7852 80.2037 29.8361 80.0743 29.8671C79.9448 29.8982 79.8168 29.9137 79.6902 29.9137C79.3507 29.9137 79.0573 29.8812 78.8098 29.8163C78.5624 29.7514 78.3725 29.6878 78.2402 29.6257L77.9381 30.6336C78.105 30.7183 78.3438 30.7917 78.6545 30.8538C78.9652 30.9159 79.3104 30.947 79.6902 30.947ZM85.8182 30.8114C85.5363 30.8792 85.2457 30.9131 84.9465 30.9131H84.5711C84.4186 30.9131 84.2546 30.9088 84.0791 30.9004C83.9036 30.8919 83.7252 30.8792 83.544 30.8623C83.3627 30.8453 83.1973 30.8199 83.0477 30.786V24.9422C83.157 24.9253 83.2821 24.9083 83.4231 24.8914C83.5641 24.8744 83.7151 24.8603 83.8763 24.849C84.0374 24.8377 84.2028 24.8293 84.3725 24.8236C84.5423 24.818 84.7106 24.8152 84.8775 24.8152C85.1594 24.8152 85.4342 24.8363 85.7017 24.8787C85.9693 24.921 86.2081 24.9958 86.4181 25.1031C86.6281 25.2104 86.7964 25.36 86.923 25.552C87.0496 25.744 87.1129 25.9868 87.1129 26.2804C87.1129 26.4272 87.0942 26.574 87.0568 26.7208C87.0194 26.8676 86.9575 27.0017 86.8712 27.1231C86.7849 27.2444 86.6727 27.3517 86.5346 27.4449C86.3965 27.5381 86.2297 27.6072 86.034 27.6524V27.7032C86.2066 27.7314 86.3706 27.7794 86.526 27.8472C86.6813 27.9149 86.8166 28.0081 86.9316 28.1267C87.0467 28.2452 87.1373 28.3892 87.2035 28.5586C87.2697 28.728 87.3028 28.9284 87.3028 29.1599C87.3028 29.4648 87.2366 29.7288 87.1043 29.9518C86.9719 30.1748 86.795 30.3569 86.5735 30.4981C86.3519 30.6392 86.1002 30.7437 85.8182 30.8114ZM84.5667 27.3898H84.1869V25.8061C84.256 25.7948 84.3538 25.7863 84.4804 25.7807C84.607 25.775 84.7451 25.7722 84.8947 25.7722C85.027 25.7722 85.1536 25.7835 85.2744 25.8061C85.3953 25.8287 85.5032 25.8682 85.5981 25.9246C85.693 25.9811 85.7693 26.0573 85.8268 26.1533C85.8844 26.2493 85.9131 26.3707 85.9131 26.5175C85.9131 26.7377 85.834 26.9156 85.6758 27.0511C85.5175 27.1866 85.3291 27.2882 85.1105 27.356C85.0414 27.3673 84.9537 27.3757 84.8472 27.3814C84.7408 27.387 84.6473 27.3898 84.5667 27.3898ZM84.7523 29.9518C84.8299 29.9546 84.8976 29.956 84.9551 29.956C85.0989 29.956 85.2385 29.9391 85.3737 29.9052C85.5089 29.8713 85.6283 29.8191 85.7319 29.7485C85.8355 29.678 85.9189 29.589 85.9822 29.4818C86.0455 29.3745 86.0771 29.2474 86.0771 29.1006C86.0771 28.9143 86.0397 28.7675 85.9649 28.6602C85.8901 28.553 85.7923 28.4697 85.6715 28.4104C85.5506 28.3511 85.4154 28.313 85.2658 28.2961C85.1162 28.2791 84.9666 28.2706 84.817 28.2706H84.1869V29.9052C84.2157 29.9165 84.2617 29.925 84.325 29.9306C84.3883 29.9363 84.4559 29.9405 84.5279 29.9433C84.5998 29.9462 84.6746 29.949 84.7523 29.9518ZM90.7293 30.947C91.5463 30.947 92.1778 30.6802 92.6238 30.1466C93.0697 29.613 93.2927 28.8522 93.2927 27.8641C93.2927 27.4011 93.2409 26.9805 93.1373 26.6022C93.0337 26.2239 92.8755 25.8992 92.6626 25.6282C92.4497 25.3572 92.1822 25.1483 91.8599 25.0015C91.5377 24.8547 91.1608 24.7813 90.7293 24.7813C89.9064 24.7813 89.2735 25.0481 88.8304 25.5816C88.3874 26.1152 88.1659 26.876 88.1659 27.8641C88.1659 28.3271 88.2176 28.7478 88.3212 29.1261C88.4248 29.5043 88.5816 29.829 88.7916 30.1C89.0016 30.371 89.2677 30.58 89.59 30.7268C89.9122 30.8736 90.292 30.947 90.7293 30.947ZM90.1337 29.7613C90.3006 29.8629 90.4991 29.9137 90.7293 29.9137C91.1493 29.9137 91.4744 29.7528 91.7046 29.4309C91.9347 29.1091 92.0498 28.5868 92.0498 27.8641C92.0498 27.5762 92.0254 27.308 91.9765 27.0595C91.9275 26.8111 91.8513 26.5937 91.7477 26.4074C91.6442 26.2211 91.5089 26.0757 91.3421 25.9712C91.1752 25.8668 90.9709 25.8145 90.7293 25.8145C90.3092 25.8145 89.9841 25.9797 89.754 26.31C89.5238 26.6403 89.4087 27.1583 89.4087 27.8641C89.4087 28.1634 89.4346 28.4386 89.4864 28.6899C89.5382 28.9411 89.6173 29.1571 89.7238 29.3378C89.8302 29.5185 89.9669 29.6596 90.1337 29.7613ZM94.501 31.8871L94.6305 30.8284H98.5144L98.6439 31.8871H99.4811V29.7951H98.7129V24.8999H95.0965C95.1023 25.7073 95.0735 26.406 95.0102 26.996C94.9469 27.586 94.8693 28.0773 94.7772 28.4697C94.6851 28.8621 94.5931 29.1656 94.501 29.3801C94.4089 29.5947 94.3428 29.733 94.3025 29.7951H93.6638V31.8871H94.501ZM95.554 29.7951H97.5305V25.9331H96.1927C96.1582 26.9381 96.0762 27.7611 95.9467 28.4019C95.8172 29.0428 95.6863 29.5072 95.554 29.7951ZM102.683 30.947C102.982 30.947 103.274 30.9187 103.559 30.8623C103.844 30.8058 104.079 30.7126 104.263 30.5828L104.021 29.6342C103.889 29.7133 103.733 29.7782 103.555 29.829C103.377 29.8798 103.158 29.9052 102.899 29.9052C102.623 29.9052 102.38 29.8558 102.17 29.757C101.96 29.6582 101.784 29.5199 101.643 29.342C101.502 29.1642 101.397 28.9496 101.328 28.6983C101.259 28.4471 101.225 28.169 101.225 27.8641C101.225 27.164 101.37 26.6474 101.66 26.3142C101.951 25.9811 102.335 25.8145 102.813 25.8145C103.072 25.8145 103.292 25.8287 103.473 25.8569C103.654 25.8851 103.811 25.9303 103.943 25.9924L104.176 25.01C104.021 24.9478 103.824 24.8942 103.585 24.849C103.346 24.8039 103.054 24.7813 102.709 24.7813C102.387 24.7813 102.065 24.8335 101.742 24.938C101.42 25.0424 101.128 25.2146 100.866 25.4546C100.605 25.6946 100.392 26.0107 100.228 26.4032C100.064 26.7956 99.9817 27.2826 99.9817 27.8641C99.9817 28.4231 100.055 28.8988 100.202 29.2912C100.349 29.6836 100.546 30.0026 100.793 30.2482C101.04 30.4938 101.327 30.6717 101.652 30.7818C101.977 30.8919 102.321 30.947 102.683 30.947ZM107.353 25.9331V30.8284H106.17V25.9331H104.401V24.8999H109.113V25.9331H107.353ZM111.832 30.9131C112.131 30.9131 112.422 30.8792 112.704 30.8114C112.986 30.7437 113.238 30.6392 113.459 30.4981C113.681 30.3569 113.858 30.1748 113.99 29.9518C114.122 29.7288 114.188 29.4648 114.188 29.1599C114.188 28.9284 114.155 28.728 114.089 28.5586C114.023 28.3892 113.932 28.2452 113.817 28.1267C113.702 28.0081 113.567 27.9149 113.412 27.8472C113.256 27.7794 113.092 27.7314 112.92 27.7032V27.6524C113.115 27.6072 113.282 27.5381 113.42 27.4449C113.558 27.3517 113.67 27.2444 113.757 27.1231C113.843 27.0017 113.905 26.8676 113.942 26.7208C113.98 26.574 113.998 26.4272 113.998 26.2804C113.998 25.9868 113.935 25.744 113.809 25.552C113.682 25.36 113.514 25.2104 113.304 25.1031C113.094 24.9958 112.855 24.921 112.587 24.8787C112.32 24.8363 112.045 24.8152 111.763 24.8152C111.596 24.8152 111.428 24.818 111.258 24.8236C111.088 24.8293 110.923 24.8377 110.762 24.849C110.601 24.8603 110.45 24.8744 110.309 24.8914C110.168 24.9083 110.043 24.9253 109.933 24.9422V30.786C110.083 30.8199 110.248 30.8453 110.43 30.8623C110.611 30.8792 110.789 30.8919 110.965 30.9004C111.14 30.9088 111.304 30.9131 111.457 30.9131H111.832ZM111.073 27.3898H111.452C111.533 27.3898 111.626 27.387 111.733 27.3814C111.839 27.3757 111.927 27.3673 111.996 27.356C112.215 27.2882 112.403 27.1866 112.561 27.0511C112.72 26.9156 112.799 26.7377 112.799 26.5175C112.799 26.3707 112.77 26.2493 112.712 26.1533C112.655 26.0573 112.579 25.9811 112.484 25.9246C112.389 25.8682 112.281 25.8287 112.16 25.8061C112.039 25.7835 111.913 25.7722 111.78 25.7722C111.631 25.7722 111.493 25.775 111.366 25.7807C111.239 25.7863 111.142 25.7948 111.073 25.8061V27.3898ZM111.841 29.956C111.783 29.956 111.716 29.9546 111.638 29.9518C111.56 29.949 111.485 29.9462 111.414 29.9433C111.342 29.9405 111.274 29.9363 111.211 29.9306C111.147 29.925 111.101 29.9165 111.073 29.9052V28.2706H111.703C111.852 28.2706 112.002 28.2791 112.151 28.2961C112.301 28.313 112.436 28.3511 112.557 28.4104C112.678 28.4697 112.776 28.553 112.851 28.6602C112.925 28.7675 112.963 28.9143 112.963 29.1006C112.963 29.2474 112.931 29.3745 112.868 29.4818C112.805 29.589 112.721 29.678 112.618 29.7485C112.514 29.8191 112.395 29.8713 112.259 29.9052C112.124 29.9391 111.985 29.956 111.841 29.956ZM119.509 30.1466C119.063 30.6802 118.432 30.947 117.615 30.947C117.178 30.947 116.798 30.8736 116.476 30.7268C116.153 30.58 115.887 30.371 115.677 30.1C115.467 29.829 115.31 29.5043 115.207 29.1261C115.103 28.7478 115.052 28.3271 115.052 27.8641C115.052 26.876 115.273 26.1152 115.716 25.5816C116.159 25.0481 116.792 24.7813 117.615 24.7813C118.046 24.7813 118.423 24.8547 118.746 25.0015C119.068 25.1483 119.335 25.3572 119.548 25.6282C119.761 25.8992 119.919 26.2239 120.023 26.6022C120.127 26.9805 120.178 27.4011 120.178 27.8641C120.178 28.8522 119.955 29.613 119.509 30.1466ZM117.615 29.9137C117.385 29.9137 117.186 29.8629 117.019 29.7613C116.853 29.6596 116.716 29.5185 116.609 29.3378C116.503 29.1571 116.424 28.9411 116.372 28.6899C116.32 28.4386 116.294 28.1634 116.294 27.8641C116.294 27.1583 116.409 26.6403 116.64 26.31C116.87 25.9797 117.195 25.8145 117.615 25.8145C117.857 25.8145 118.061 25.8668 118.228 25.9712C118.395 26.0757 118.53 26.2211 118.633 26.4074C118.737 26.5937 118.813 26.8111 118.862 27.0595C118.911 27.308 118.935 27.5762 118.935 27.8641C118.935 28.5868 118.82 29.1091 118.59 29.4309C118.36 29.7528 118.035 29.9137 117.615 29.9137ZM126.785 30.8623C126.501 30.9187 126.209 30.947 125.909 30.947C125.547 30.947 125.203 30.8919 124.878 30.7818C124.553 30.6717 124.267 30.4938 124.019 30.2482C123.772 30.0026 123.575 29.6836 123.428 29.2912C123.281 28.8988 123.208 28.4231 123.208 27.8641C123.208 27.2826 123.29 26.7956 123.454 26.4032C123.618 26.0107 123.831 25.6946 124.092 25.4546C124.354 25.2146 124.646 25.0424 124.969 24.938C125.291 24.8335 125.613 24.7813 125.935 24.7813C126.28 24.7813 126.572 24.8039 126.811 24.849C127.05 24.8942 127.247 24.9478 127.402 25.01L127.169 25.9924C127.037 25.9303 126.88 25.8851 126.699 25.8569C126.518 25.8287 126.298 25.8145 126.039 25.8145C125.561 25.8145 125.177 25.9811 124.887 26.3142C124.596 26.6474 124.451 27.164 124.451 27.8641C124.451 28.169 124.485 28.4471 124.554 28.6983C124.623 28.9496 124.728 29.1642 124.869 29.342C125.01 29.5199 125.186 29.6582 125.396 29.757C125.606 29.8558 125.849 29.9052 126.125 29.9052C126.384 29.9052 126.603 29.8798 126.781 29.829C126.959 29.7782 127.115 29.7133 127.247 29.6342L127.489 30.5828C127.305 30.7126 127.07 30.8058 126.785 30.8623ZM130.656 30.9131C131.462 30.9131 132.078 30.7409 132.503 30.3965C132.929 30.052 133.142 29.541 133.142 28.8635C133.142 28.4852 133.082 28.1732 132.961 27.9276C132.84 27.682 132.677 27.4872 132.473 27.3433C132.269 27.1993 132.036 27.0991 131.774 27.0426C131.512 26.9861 131.24 26.9579 130.958 26.9579C130.889 26.9579 130.813 26.9607 130.73 26.9664C130.646 26.972 130.566 26.9777 130.488 26.9833C130.41 26.989 130.338 26.996 130.272 27.0045C130.206 27.013 130.159 27.02 130.13 27.0257V24.8999H127.575V25.9331H128.947V30.7691C129.086 30.803 129.237 30.8284 129.401 30.8453C129.565 30.8623 129.726 30.8764 129.884 30.8877C130.042 30.899 130.19 30.906 130.328 30.9088C130.466 30.9117 130.576 30.9131 130.656 30.9131ZM130.384 29.8671C130.491 29.8756 130.602 29.8798 130.717 29.8798C130.878 29.8798 131.03 29.8643 131.174 29.8332C131.318 29.8022 131.445 29.7485 131.554 29.6723C131.663 29.5961 131.748 29.4959 131.809 29.3717C131.869 29.2474 131.899 29.095 131.899 28.9143C131.899 28.7223 131.866 28.5657 131.8 28.4443C131.734 28.3229 131.648 28.2283 131.541 28.1605C131.435 28.0928 131.309 28.0476 131.166 28.025C131.022 28.0025 130.872 27.9912 130.717 27.9912C130.677 27.9912 130.628 27.994 130.57 27.9996L130.397 28.0166C130.34 28.0222 130.287 28.0293 130.238 28.0377C130.189 28.0462 130.153 28.0533 130.13 28.0589V29.829C130.193 29.8459 130.278 29.8586 130.384 29.8671ZM137.691 30.8284V29.7951H135.248V28.3469H137.432V27.3136H135.248V25.9331H137.647V24.8999H134.066V30.8284H137.691ZM139.9 27.7455V30.8284H138.778V24.8999H139.857L141.471 27.61L141.756 28.2876H141.79L142.049 27.5931L143.577 24.8999H144.647V30.8284H143.465V27.754L143.594 26.5768H143.542L143.171 27.5253L141.885 29.7358H141.506L140.15 27.5169L139.771 26.5768H139.728L139.9 27.7455ZM147.073 30.8284V28.3469H149.282V30.8284H150.465V24.8999H149.282V27.3136H147.073V24.8999H145.89V30.8284H147.073ZM156.377 24.8999H157.559V30.8284H156.377V24.8999ZM153.321 30.9131C154.127 30.9131 154.734 30.7423 155.143 30.4007C155.551 30.0591 155.755 29.5439 155.755 28.855C155.755 28.4824 155.698 28.1732 155.583 27.9276C155.468 27.682 155.312 27.4872 155.117 27.3433C154.921 27.1993 154.692 27.0991 154.431 27.0426C154.169 26.9861 153.894 26.9579 153.606 26.9579C153.474 26.9579 153.339 26.9664 153.201 26.9833C153.063 27.0002 152.962 27.0144 152.899 27.0257V24.8999H151.716V30.7691C151.848 30.803 151.992 30.8284 152.148 30.8453C152.303 30.8623 152.454 30.8764 152.601 30.8877C152.747 30.899 152.884 30.906 153.011 30.9088C153.137 30.9117 153.241 30.9131 153.321 30.9131ZM153.127 29.8671C153.216 29.8756 153.31 29.8798 153.408 29.8798C153.736 29.8798 154.002 29.805 154.206 29.6554C154.41 29.5058 154.513 29.2559 154.513 28.9058C154.513 28.7195 154.484 28.5671 154.426 28.4485C154.369 28.3299 154.291 28.2368 154.193 28.169C154.095 28.1013 153.98 28.0547 153.848 28.0293C153.716 28.0039 153.572 27.9912 153.416 27.9912C153.336 27.9912 153.241 27.9982 153.132 28.0123C153.022 28.0265 152.945 28.042 152.899 28.0589V29.829C152.962 29.8459 153.038 29.8586 153.127 29.8671ZM159.665 30.8284L160.735 28.999L160.96 28.3723L161.193 28.999L162.255 30.8284H163.661L161.832 27.754L163.575 24.8999H162.289L161.314 26.6107L161.115 27.212L160.908 26.6107L159.976 24.8999H158.552L160.235 27.8133L158.379 30.8284H159.665ZM56.7662 35.5035V40.3987H55.5837V34.4702H59.0966V35.5035H56.7662ZM60.9264 40.3987V38.3576C60.9551 38.3633 61.0026 38.3689 61.0688 38.3746C61.1349 38.3802 61.2026 38.3844 61.2716 38.3873C61.3407 38.3901 61.4068 38.3915 61.4701 38.3915H61.6082C61.9074 38.3915 62.1966 38.3548 62.4756 38.2814C62.7547 38.208 63.0036 38.0894 63.2222 37.9257C63.4409 37.7619 63.6164 37.5516 63.7487 37.2947C63.8811 37.0378 63.9472 36.723 63.9472 36.3504C63.9472 35.9382 63.871 35.6037 63.7185 35.3468C63.566 35.0899 63.3689 34.8894 63.1273 34.7455C62.8856 34.6015 62.6137 34.5055 62.3116 34.4575C62.0096 34.4095 61.7089 34.3855 61.4097 34.3855C61.122 34.3855 60.8329 34.3982 60.5423 34.4236C60.2517 34.449 59.9856 34.4843 59.7439 34.5295V40.3987H60.9264ZM61.3277 37.3837H61.4356C61.5909 37.3837 61.7449 37.3695 61.8973 37.3413C62.0498 37.3131 62.1865 37.2608 62.3073 37.1846C62.4281 37.1084 62.5245 37.0025 62.5965 36.867C62.6684 36.7315 62.7043 36.5537 62.7043 36.3335C62.7043 36.1471 62.6698 35.9933 62.6008 35.8719C62.5317 35.7505 62.4411 35.6531 62.3289 35.5797C62.2167 35.5063 62.0887 35.4555 61.9448 35.4272C61.801 35.399 61.6542 35.3849 61.5046 35.3849C61.3895 35.3849 61.2802 35.3891 61.1766 35.3976C61.0731 35.4061 60.9896 35.4159 60.9263 35.4272V37.3498C60.9494 37.3554 60.9839 37.3611 61.0299 37.3667C61.076 37.3724 61.1249 37.3766 61.1766 37.3794C61.2284 37.3822 61.2788 37.3837 61.3277 37.3837ZM65.8201 40.458C66.0446 40.458 66.2402 40.4199 66.4071 40.3437C66.5739 40.2675 66.725 40.1517 66.8602 39.9964C66.9954 39.8412 67.122 39.645 67.24 39.4078C67.3579 39.1707 67.4802 38.8912 67.6068 38.5694L69.2121 34.4702H67.9952L67.0889 37.0618L66.9508 37.8579H66.899L66.7264 37.0872L65.5008 34.4702H64.1112L66.3725 38.798C66.2632 39.2159 66.0733 39.4248 65.8029 39.4248C65.7108 39.4248 65.6245 39.4191 65.544 39.4078C65.4634 39.3965 65.3742 39.3655 65.2764 39.3147L64.9743 40.2548C65.1124 40.3395 65.2404 40.3945 65.3584 40.4199C65.4763 40.4453 65.6303 40.458 65.8201 40.458ZM72.069 40.4114C71.7871 40.482 71.4994 40.5173 71.2059 40.5173C70.8261 40.5173 70.4809 40.4862 70.1702 40.4241C69.8595 40.362 69.6207 40.2886 69.4538 40.2039L69.7559 39.1961C69.8882 39.2582 70.0781 39.3217 70.3255 39.3866C70.573 39.4516 70.8664 39.484 71.2059 39.484C71.3325 39.484 71.4605 39.4685 71.59 39.4375C71.7195 39.4064 71.836 39.3556 71.9396 39.285C72.0431 39.2144 72.1266 39.1227 72.1898 39.0098C72.2531 38.8968 72.2848 38.7613 72.2848 38.6032C72.2848 38.3379 72.1841 38.1374 71.9827 38.0019C71.7813 37.8664 71.4217 37.793 70.9038 37.7817C70.8348 37.7761 70.783 37.7732 70.7485 37.7732H70.3342V36.867H70.7312C70.806 36.867 70.8822 36.8656 70.9599 36.8628C71.0376 36.86 71.1138 36.8543 71.1887 36.8458C71.2635 36.8374 71.3239 36.8275 71.3699 36.8162C71.5713 36.771 71.7439 36.6906 71.8878 36.5748C72.0316 36.4591 72.1035 36.3024 72.1035 36.1048C72.1035 35.8338 72.0158 35.6488 71.8403 35.55C71.6648 35.4512 71.4332 35.4018 71.1455 35.4018C70.8866 35.4018 70.6449 35.4357 70.4205 35.5035C70.1961 35.5712 70.0263 35.6361 69.9113 35.6983L69.6092 34.7158C69.6725 34.6819 69.7631 34.6452 69.8811 34.6057C69.999 34.5662 70.1342 34.5281 70.2867 34.4914C70.4392 34.4547 70.6046 34.425 70.783 34.4024C70.9614 34.3799 71.1426 34.3686 71.3267 34.3686C71.5799 34.3686 71.8273 34.3911 72.069 34.4363C72.3107 34.4815 72.5265 34.5605 72.7163 34.6735C72.9062 34.7864 73.0587 34.9374 73.1738 35.1266C73.2889 35.3157 73.3464 35.5571 73.3464 35.8507C73.3464 36.1443 73.2673 36.4153 73.1091 36.6638C72.9508 36.9122 72.6962 37.0929 72.3452 37.2058V37.2481C72.7192 37.3215 73.0112 37.4796 73.2213 37.7224C73.4313 37.9652 73.5363 38.2899 73.5363 38.6964C73.5363 39.0182 73.4701 39.2935 73.3378 39.5222C73.2054 39.7508 73.0314 39.9386 72.8156 40.0854C72.5998 40.2322 72.351 40.3409 72.069 40.4114ZM76.9369 40.5173C77.754 40.5173 78.3855 40.2505 78.8314 39.717C79.2773 39.1834 79.5003 38.4226 79.5003 37.4345C79.5003 36.9715 79.4485 36.5508 79.3449 36.1725C79.2414 35.7942 79.0831 35.4696 78.8702 35.1986C78.6573 34.9275 78.3898 34.7186 78.0676 34.5718C77.7453 34.425 77.3684 34.3516 76.9369 34.3516C76.1141 34.3516 75.4811 34.6184 75.0381 35.152C74.595 35.6856 74.3735 36.4464 74.3735 37.4345C74.3735 37.8975 74.4253 38.3181 74.5288 38.6964C74.6324 39.0747 74.7892 39.3994 74.9992 39.6704C75.2092 39.9414 75.4754 40.1503 75.7976 40.2971C76.1198 40.4439 76.4996 40.5173 76.9369 40.5173ZM76.3414 39.3316C76.5082 39.4332 76.7067 39.4841 76.9369 39.4841C77.3569 39.4841 77.682 39.3231 77.9122 39.0013C78.1424 38.6795 78.2574 38.1572 78.2574 37.4345C78.2574 37.1465 78.233 36.8783 78.1841 36.6299C78.1352 36.3815 78.0589 36.1641 77.9553 35.9777C77.8518 35.7914 77.7166 35.646 77.5497 35.5416C77.3828 35.4371 77.1786 35.3849 76.9369 35.3849C76.5168 35.3849 76.1917 35.55 75.9616 35.8803C75.7314 36.2107 75.6163 36.7287 75.6163 37.4345C75.6163 37.7337 75.6422 38.009 75.694 38.2602C75.7458 38.5115 75.8249 38.7275 75.9314 38.9081C76.0378 39.0888 76.1745 39.23 76.3414 39.3316ZM81.9429 40.5173C82.2364 40.5173 82.5241 40.482 82.806 40.4114C83.088 40.3409 83.3368 40.2322 83.5526 40.0854C83.7684 39.9386 83.9424 39.7508 84.0748 39.5222C84.2071 39.2935 84.2733 39.0182 84.2733 38.6964C84.2733 38.2899 84.1683 37.9652 83.9583 37.7224C83.7482 37.4796 83.4562 37.3215 83.0822 37.2481V37.2058C83.4332 37.0929 83.6878 36.9122 83.8461 36.6638C84.0043 36.4153 84.0834 36.1443 84.0834 35.8507C84.0834 35.5571 84.0259 35.3157 83.9108 35.1266C83.7957 34.9374 83.6432 34.7864 83.4533 34.6735C83.2635 34.5605 83.0477 34.4815 82.806 34.4363C82.5644 34.3911 82.3169 34.3686 82.0638 34.3686C81.8796 34.3686 81.6984 34.3799 81.52 34.4024C81.3416 34.425 81.1762 34.4547 81.0237 34.4914C80.8712 34.5281 80.736 34.5662 80.6181 34.6057C80.5001 34.6452 80.4095 34.6819 80.3462 34.7158L80.6483 35.6983C80.7633 35.6361 80.9331 35.5712 81.1575 35.5035C81.3819 35.4357 81.6236 35.4018 81.8825 35.4018C82.1702 35.4018 82.4018 35.4512 82.5773 35.55C82.7528 35.6488 82.8405 35.8338 82.8405 36.1048C82.8405 36.3024 82.7686 36.4591 82.6248 36.5748C82.4809 36.6906 82.3083 36.771 82.1069 36.8162C82.0609 36.8275 82.0005 36.8374 81.9257 36.8458C81.8509 36.8543 81.7746 36.86 81.6969 36.8628C81.6193 36.8656 81.543 36.867 81.4682 36.867H81.0712V37.7732H81.4855C81.52 37.7732 81.5718 37.7761 81.6408 37.7817C82.1587 37.793 82.5183 37.8664 82.7197 38.0019C82.9211 38.1374 83.0218 38.3379 83.0218 38.6032C83.0218 38.7613 82.9902 38.8968 82.9269 39.0098C82.8636 39.1227 82.7801 39.2144 82.6766 39.285C82.573 39.3556 82.4565 39.4064 82.327 39.4375C82.1975 39.4685 82.0695 39.484 81.9429 39.484C81.6034 39.484 81.31 39.4516 81.0626 39.3866C80.8151 39.3217 80.6252 39.2582 80.4929 39.1961L80.1908 40.2039C80.3577 40.2886 80.5965 40.362 80.9072 40.4241C81.2179 40.4862 81.5632 40.5173 81.9429 40.5173ZM86.4224 39.086L85.9649 40.3987H84.7825L86.9575 34.4279H87.8292L90.0043 40.3987H88.7614L88.278 39.086H86.4224ZM88.0191 38.1544H86.7245L87.1646 36.8416L87.3459 35.9015H87.389L87.5703 36.8331L88.0191 38.1544ZM92.5763 38.5694L91.5061 40.3987H90.22L92.0757 37.3837L90.3927 34.4702H91.8168L92.7489 36.181L92.9561 36.7823L93.1546 36.181L94.1299 34.4702H95.4159L93.6725 37.3244L95.5022 40.3987H94.0954L93.0338 38.5694L92.8007 37.9426L92.5763 38.5694ZM98.221 40.4834C98.5202 40.4834 98.8107 40.4496 99.0927 40.3818C99.3746 40.314 99.6264 40.2096 99.8479 40.0684C100.069 39.9273 100.246 39.7452 100.379 39.5222C100.511 39.2991 100.577 39.0352 100.577 38.7303C100.577 38.4988 100.544 38.2983 100.478 38.129C100.412 37.9596 100.321 37.8156 100.206 37.697C100.091 37.5784 99.9558 37.4853 99.8004 37.4175C99.6451 37.3498 99.4811 37.3018 99.3085 37.2736V37.2227C99.5041 37.1776 99.671 37.1084 99.8091 37.0152C99.9472 36.9221 100.059 36.8148 100.146 36.6934C100.232 36.572 100.294 36.4379 100.331 36.2911C100.369 36.1443 100.387 35.9975 100.387 35.8507C100.387 35.5571 100.324 35.3143 100.197 35.1223C100.071 34.9304 99.9026 34.7807 99.6926 34.6735C99.4825 34.5662 99.2437 34.4914 98.9762 34.449C98.7086 34.4067 98.4339 34.3855 98.1519 34.3855C97.985 34.3855 97.8167 34.3883 97.647 34.394C97.4773 34.3996 97.3118 34.4081 97.1507 34.4194C96.9896 34.4307 96.8386 34.4448 96.6976 34.4617C96.5566 34.4787 96.4315 34.4956 96.3221 34.5125V40.3564C96.4717 40.3903 96.6372 40.4157 96.8184 40.4326C96.9997 40.4496 97.178 40.4623 97.3535 40.4707C97.529 40.4792 97.693 40.4834 97.8455 40.4834H98.221ZM97.4615 36.9602H97.8412C97.9218 36.9602 98.0153 36.9574 98.1217 36.9517C98.2282 36.9461 98.3159 36.9376 98.385 36.9263C98.6036 36.8586 98.7921 36.7569 98.9503 36.6214C99.1085 36.4859 99.1877 36.308 99.1877 36.0878C99.1877 35.941 99.1589 35.8196 99.1014 35.7237C99.0438 35.6277 98.9676 35.5515 98.8726 35.495C98.7777 35.4385 98.6698 35.399 98.549 35.3764C98.4281 35.3538 98.3015 35.3425 98.1692 35.3425C98.0196 35.3425 97.8815 35.3454 97.7549 35.351C97.6283 35.3567 97.5305 35.3651 97.4615 35.3764V36.9602ZM98.2296 39.5264C98.1721 39.5264 98.1045 39.525 98.0268 39.5222C97.9491 39.5193 97.8743 39.5165 97.8024 39.5137C97.7305 39.5109 97.6628 39.5066 97.5995 39.501C97.5363 39.4953 97.4902 39.4869 97.4615 39.4756V37.841H98.0915C98.2411 37.841 98.3907 37.8495 98.5403 37.8664C98.6899 37.8833 98.8252 37.9215 98.946 37.9807C99.0668 38.04 99.1646 38.1233 99.2394 38.2306C99.3142 38.3379 99.3517 38.4847 99.3517 38.671C99.3517 38.8178 99.32 38.9448 99.2567 39.0521C99.1934 39.1594 99.11 39.2483 99.0064 39.3189C98.9028 39.3895 98.7834 39.4417 98.6482 39.4756C98.513 39.5095 98.3735 39.5264 98.2296 39.5264ZM102.752 39.086L102.295 40.3987H101.112L103.287 34.4279H104.159L106.334 40.3987H105.091L104.608 39.086H102.752ZM104.349 38.1544H103.054L103.495 36.8416L103.676 35.9015H103.719L103.9 36.8331L104.349 38.1544ZM108.915 35.5035V40.3987H107.732V35.5035H105.963V34.4702H110.676V35.5035H108.915ZM112.678 40.3987V37.9172H114.888V40.3987H116.07V34.4702H114.888V36.884H112.678V34.4702H111.496V40.3987H112.678ZM123.165 34.4702V40.3987H121.982V34.4702H123.165ZM118.927 40.4834C119.732 40.4834 120.339 40.3126 120.748 39.971C121.157 39.6294 121.361 39.1142 121.361 38.4254C121.361 38.0527 121.303 37.7436 121.188 37.498C121.073 37.2524 120.918 37.0576 120.722 36.9136C120.526 36.7696 120.298 36.6694 120.036 36.6129C119.774 36.5565 119.499 36.5283 119.212 36.5283C119.079 36.5283 118.944 36.5367 118.806 36.5537C118.668 36.5706 118.567 36.5847 118.504 36.596V34.4702H117.321V40.3394C117.454 40.3733 117.598 40.3987 117.753 40.4157C117.908 40.4326 118.059 40.4467 118.206 40.458C118.353 40.4693 118.49 40.4764 118.616 40.4792C118.743 40.482 118.846 40.4834 118.927 40.4834ZM118.733 39.4375C118.822 39.4459 118.915 39.4502 119.013 39.4502C119.341 39.4502 119.607 39.3754 119.812 39.2257C120.016 39.0761 120.118 38.8263 120.118 38.4762C120.118 38.2899 120.089 38.1374 120.032 38.0189C119.974 37.9003 119.896 37.8071 119.799 37.7394C119.701 37.6716 119.586 37.625 119.453 37.5996C119.321 37.5742 119.177 37.5615 119.022 37.5615C118.941 37.5615 118.846 37.5686 118.737 37.5827C118.628 37.5968 118.55 37.6123 118.504 37.6293V39.3994C118.567 39.4163 118.643 39.429 118.733 39.4375ZM125.271 40.3987L126.341 38.5694L126.565 37.9426L126.798 38.5694L127.86 40.3987H129.267L127.437 37.3244L129.18 34.4702H127.894L126.919 36.181L126.721 36.7823L126.513 36.181L125.581 34.4702H124.157L125.84 37.3837L123.985 40.3987H125.271ZM133.548 35.5035V40.3987H132.365V34.4702H136.845V40.3987H135.662V35.5035H133.548ZM139.27 40.3987V38.3576C139.299 38.3633 139.346 38.3689 139.413 38.3746C139.479 38.3802 139.546 38.3844 139.615 38.3873C139.684 38.3901 139.751 38.3915 139.814 38.3915H139.952C140.251 38.3915 140.54 38.3548 140.819 38.2814C141.099 38.208 141.347 38.0894 141.566 37.9257C141.785 37.7619 141.96 37.5516 142.093 37.2947C142.225 37.0378 142.291 36.723 142.291 36.3504C142.291 35.9382 142.215 35.6037 142.062 35.3468C141.91 35.0899 141.713 34.8894 141.471 34.7455C141.229 34.6015 140.958 34.5055 140.655 34.4575C140.353 34.4095 140.053 34.3855 139.754 34.3855C139.466 34.3855 139.177 34.3982 138.886 34.4236C138.596 34.449 138.329 34.4843 138.088 34.5295V40.3987H139.27ZM139.671 37.3837H139.779C139.935 37.3837 140.089 37.3695 140.241 37.3413C140.394 37.3131 140.53 37.2608 140.651 37.1846C140.772 37.1084 140.868 37.0025 140.94 36.867C141.012 36.7315 141.048 36.5537 141.048 36.3335C141.048 36.1471 141.014 35.9933 140.945 35.8719C140.876 35.7505 140.785 35.6531 140.673 35.5797C140.56 35.5063 140.432 35.4555 140.289 35.4272C140.145 35.399 139.998 35.3849 139.848 35.3849C139.733 35.3849 139.624 35.3891 139.52 35.3976C139.417 35.4061 139.333 35.4159 139.27 35.4272V37.3498C139.293 37.3554 139.328 37.3611 139.374 37.3667C139.42 37.3724 139.469 37.3766 139.52 37.3794C139.572 37.3822 139.623 37.3837 139.671 37.3837ZM144.121 40.3987L146.373 37.138L146.779 36.3419H146.822L146.753 37.1126V40.3987H147.936V34.4702H147.055L144.803 37.6716L144.38 38.4931H144.328L144.414 37.697V34.4702H143.232V40.3987H144.121ZM152.575 40.4326C152.29 40.4891 151.998 40.5173 151.699 40.5173C151.336 40.5173 150.993 40.4623 150.667 40.3522C150.342 40.2421 150.056 40.0642 149.809 39.8186C149.561 39.573 149.364 39.254 149.217 38.8615C149.071 38.4691 148.997 37.9934 148.997 37.4345C148.997 36.8529 149.079 36.3659 149.243 35.9735C149.407 35.5811 149.62 35.2649 149.882 35.0249C150.144 34.785 150.436 34.6128 150.758 34.5083C151.08 34.4039 151.402 34.3516 151.725 34.3516C152.07 34.3516 152.362 34.3742 152.601 34.4194C152.84 34.4646 153.037 34.5182 153.192 34.5803L152.959 35.5627C152.827 35.5006 152.67 35.4555 152.489 35.4272C152.307 35.399 152.087 35.3849 151.828 35.3849C151.351 35.3849 150.967 35.5515 150.676 35.8846C150.385 36.2177 150.24 36.7343 150.24 37.4345C150.24 37.7394 150.275 38.0174 150.344 38.2687C150.413 38.52 150.518 38.7345 150.659 38.9124C150.8 39.0902 150.975 39.2286 151.185 39.3274C151.395 39.4262 151.638 39.4756 151.915 39.4756C152.174 39.4756 152.392 39.4502 152.571 39.3994C152.749 39.3485 152.904 39.2836 153.037 39.2046L153.278 40.1531C153.094 40.283 152.86 40.3761 152.575 40.4326ZM155.402 40.3987V35.5035H157.516V40.3987H158.699V34.4702H154.219V40.3987H155.402ZM164.209 39.717C163.764 40.2505 163.132 40.5173 162.315 40.5173C161.878 40.5173 161.498 40.4439 161.176 40.2971C160.853 40.1503 160.587 39.9414 160.377 39.6704C160.167 39.3994 160.01 39.0747 159.907 38.6964C159.803 38.3181 159.752 37.8975 159.752 37.4345C159.752 36.4464 159.973 35.6856 160.416 35.152C160.859 34.6184 161.492 34.3516 162.315 34.3516C162.747 34.3516 163.123 34.425 163.446 34.5718C163.768 34.7186 164.035 34.9275 164.248 35.1986C164.461 35.4696 164.619 35.7942 164.723 36.1725C164.827 36.5508 164.878 36.9715 164.878 37.4345C164.878 38.4226 164.655 39.1834 164.209 39.717ZM162.315 39.4841C162.085 39.4841 161.886 39.4332 161.719 39.3316C161.553 39.23 161.416 39.0888 161.309 38.9081C161.203 38.7275 161.124 38.5115 161.072 38.2602C161.02 38.009 160.994 37.7337 160.994 37.4345C160.994 36.7287 161.11 36.2107 161.34 35.8803C161.57 35.55 161.895 35.3849 162.315 35.3849C162.557 35.3849 162.761 35.4371 162.928 35.5416C163.095 35.646 163.23 35.7914 163.333 35.9777C163.437 36.1641 163.513 36.3815 163.562 36.6299C163.611 36.8783 163.636 37.1465 163.636 37.4345C163.636 38.1572 163.52 38.6795 163.29 39.0013C163.06 39.3231 162.735 39.4841 162.315 39.4841ZM169.319 40.4326C169.034 40.4891 168.742 40.5173 168.443 40.5173C168.081 40.5173 167.737 40.4623 167.412 40.3522C167.087 40.2421 166.8 40.0642 166.553 39.8186C166.305 39.573 166.108 39.254 165.962 38.8615C165.815 38.4691 165.742 37.9934 165.742 37.4345C165.742 36.8529 165.823 36.3659 165.987 35.9735C166.151 35.5811 166.364 35.2649 166.626 35.0249C166.888 34.785 167.18 34.6128 167.502 34.5083C167.824 34.4039 168.147 34.3516 168.469 34.3516C168.814 34.3516 169.106 34.3742 169.345 34.4194C169.584 34.4646 169.781 34.5182 169.936 34.5803L169.703 35.5627C169.571 35.5006 169.414 35.4555 169.233 35.4272C169.052 35.399 168.831 35.3849 168.572 35.3849C168.095 35.3849 167.711 35.5515 167.42 35.8846C167.13 36.2177 166.984 36.7343 166.984 37.4345C166.984 37.7394 167.019 38.0174 167.088 38.2687C167.157 38.52 167.262 38.7345 167.403 38.9124C167.544 39.0902 167.719 39.2286 167.929 39.3274C168.139 39.4262 168.383 39.4756 168.659 39.4756C168.918 39.4756 169.136 39.4502 169.315 39.3994C169.493 39.3485 169.648 39.2836 169.781 39.2046L170.023 40.1531C169.838 40.283 169.604 40.3761 169.319 40.4326ZM173.052 40.5173C173.869 40.5173 174.501 40.2505 174.946 39.717C175.392 39.1834 175.615 38.4226 175.615 37.4345C175.615 36.9715 175.564 36.5508 175.46 36.1725C175.356 35.7942 175.198 35.4696 174.985 35.1986C174.772 34.9275 174.505 34.7186 174.183 34.5718C173.86 34.425 173.484 34.3516 173.052 34.3516C172.229 34.3516 171.596 34.6184 171.153 35.152C170.71 35.6856 170.489 36.4464 170.489 37.4345C170.489 37.8975 170.54 38.3181 170.644 38.6964C170.748 39.0747 170.904 39.3994 171.114 39.6704C171.324 39.9414 171.59 40.1503 171.913 40.2971C172.235 40.4439 172.615 40.5173 173.052 40.5173ZM172.456 39.3316C172.623 39.4332 172.822 39.4841 173.052 39.4841C173.472 39.4841 173.797 39.3231 174.027 39.0013C174.257 38.6795 174.373 38.1572 174.373 37.4345C174.373 37.1465 174.348 36.8783 174.299 36.6299C174.25 36.3815 174.174 36.1641 174.07 35.9777C173.967 35.7914 173.832 35.646 173.665 35.5416C173.498 35.4371 173.294 35.3849 173.052 35.3849C172.632 35.3849 172.307 35.55 172.077 35.8803C171.847 36.2107 171.731 36.7287 171.731 37.4345C171.731 37.7337 171.757 38.009 171.809 38.2602C171.861 38.5115 171.94 38.7275 172.046 38.9081C172.153 39.0888 172.29 39.23 172.456 39.3316ZM178.42 40.4834C178.789 40.4834 179.121 40.4411 179.417 40.3564C179.714 40.2717 179.967 40.1475 180.177 39.9837C180.387 39.82 180.548 39.6139 180.66 39.3655C180.772 39.117 180.829 38.8263 180.829 38.4931C180.829 38.1544 180.774 37.8678 180.665 37.6335C180.555 37.3992 180.404 37.21 180.211 37.0661C180.019 36.9221 179.787 36.819 179.517 36.7569C179.246 36.6948 178.95 36.6638 178.628 36.6638C178.49 36.6638 178.35 36.6722 178.209 36.6892C178.068 36.7061 177.949 36.723 177.851 36.74V35.5035H180.388V34.4702H176.668V40.3394C176.795 40.3677 176.939 40.3903 177.1 40.4072C177.261 40.4241 177.424 40.4383 177.588 40.4496C177.752 40.4608 177.907 40.4693 178.054 40.475C178.2 40.4806 178.323 40.4834 178.42 40.4834ZM178.14 39.5179C178.269 39.5236 178.392 39.5264 178.507 39.5264C178.656 39.5264 178.796 39.508 178.925 39.4713C179.055 39.4346 179.168 39.3782 179.266 39.302C179.364 39.2257 179.442 39.1283 179.499 39.0098C179.557 38.8912 179.586 38.7472 179.586 38.5778C179.586 38.3746 179.554 38.2108 179.491 38.0866C179.427 37.9624 179.341 37.865 179.232 37.7944C179.122 37.7238 178.997 37.6773 178.856 37.6547C178.715 37.6321 178.564 37.6208 178.403 37.6208C178.323 37.6208 178.222 37.6279 178.101 37.642C177.98 37.6561 177.897 37.6688 177.851 37.6801V39.484C177.914 39.501 178.01 39.5123 178.14 39.5179ZM181.761 40.458C181.853 40.458 181.952 40.4481 182.058 40.4284C182.165 40.4086 182.273 40.3733 182.382 40.3225C182.491 40.2717 182.596 40.2039 182.697 40.1192C182.798 40.0346 182.888 39.9273 182.969 39.7974C183.096 39.5998 183.199 39.3655 183.28 39.0945C183.36 38.8234 183.425 38.5115 183.474 38.1586C183.523 37.8057 183.562 37.4091 183.59 36.9687C183.619 36.5283 183.645 36.0399 183.668 35.5035H184.954V40.3987H186.137V34.4702H182.572C182.56 35.159 182.54 35.7618 182.512 36.2784C182.483 36.795 182.444 37.2397 182.395 37.6123C182.346 37.985 182.29 38.2913 182.227 38.5312C182.163 38.7712 182.089 38.9533 182.002 39.0775C181.939 39.1848 181.863 39.261 181.774 39.3062C181.684 39.3514 181.594 39.3739 181.502 39.3739C181.467 39.3739 181.433 39.3711 181.398 39.3655C181.364 39.3598 181.329 39.3514 181.295 39.3401L181.165 40.3395C181.251 40.379 181.339 40.4086 181.428 40.4284C181.518 40.4481 181.628 40.458 181.761 40.458ZM191.004 39.3655V40.3987H187.379V34.4702H190.961V35.5035H188.562V36.884H190.746V37.9172H188.562V39.3655H191.004ZM193.274 40.3987V37.9172H195.484V40.3987H196.666V34.4702H195.484V36.884H193.274V34.4702H192.092V40.3987H193.274ZM201.06 37.138L198.807 40.3987H197.918V34.4702H199.1V37.697L199.014 38.4931H199.066L199.489 37.6716L201.741 34.4702H202.622V40.3987H201.439V37.1126L201.508 36.3419H201.465L201.06 37.138ZM206.342 34.1738C206.814 34.1738 207.183 34.0919 207.451 33.9282C207.718 33.7644 207.884 33.5047 207.947 33.149L206.989 33.005C206.949 33.3381 206.736 33.5047 206.35 33.5047C206.172 33.5047 206.027 33.4652 205.915 33.3861C205.802 33.3071 205.735 33.1772 205.712 32.9965L204.641 33.1659C204.664 33.3579 204.723 33.5188 204.818 33.6487C204.913 33.7785 205.034 33.8816 205.181 33.9578C205.328 34.034 205.499 34.0891 205.694 34.123C205.89 34.1568 206.106 34.1738 206.342 34.1738ZM207.015 37.138L204.762 40.3987H203.873V34.4702H205.056V37.697L204.969 38.4931H205.021L205.444 37.6716L207.697 34.4702H208.577V40.3987H207.395V37.1126L207.464 36.3419H207.421L207.015 37.138Z" fill="#003776"/>
</svg>
