<?xml version="1.0" encoding="UTF-8"?>
<svg width="30px" height="30px" viewBox="0 0 30 30" version="1.1" xmlns="http://www.w3.org/2000/svg" xmlns:xlink="http://www.w3.org/1999/xlink">
    <title>icons / mail / outlined</title>
    <g id="icons-/-mail-/-outlined" stroke="none" stroke-width="1" fill="none" fill-rule="evenodd">
        <g id="icons-/-mail">
            <rect id="Rectangle" fill-opacity="0" fill="#D8D8D8" x="0" y="0" width="30" height="30"></rect>
            <g id="feather-mail" transform="translate(4.000000, 6.000000)" fill="#003776" fill-rule="nonzero">
                <path d="M19.3606593,-1 L2.15118437,-1 C0.415748216,-1 -1,0.415748216 -1,2.15118437 L-1,15.0582906 C-1,16.7937267 0.415748216,18.2094749 2.15118437,18.2094749 L19.3606593,18.2094749 C21.0960955,18.2094749 22.5118437,16.7937267 22.5118437,15.0582906 L22.5118437,2.15118437 C22.5118437,0.415748216 21.0960955,-1 19.3606593,-1 Z M2.15118437,1 L19.3606593,1 C19.991526,1 20.5118437,1.52031772 20.5118437,2.15118437 L20.5118437,15.0582906 C20.5118437,15.6891572 19.991526,16.2094749 19.3606593,16.2094749 L2.15118437,16.2094749 C1.52031772,16.2094749 1,15.6891572 1,15.0582906 L1,2.15118437 C1,1.52031772 1.52031772,1 2.15118437,1 Z" id="Path"></path>
                <path d="M20.9383813,1.33195245 C21.3908306,1.01523794 22.0143611,1.12527273 22.3310756,1.57772202 C22.6234275,1.99536753 22.5521586,2.55878633 22.1836006,2.89209941 L22.085306,2.97041629 L11.3293842,10.4995616 C11.0233218,10.7138052 10.6272137,10.7376101 10.3011411,10.5709761 L10.1824595,10.4995616 L-0.573462344,2.97041629 C-1.02591164,2.65370178 -1.13594643,2.03017132 -0.819231921,1.57772202 C-0.526880068,1.16007652 0.0269007638,1.03419249 0.466231547,1.26640153 L0.573462344,1.33195245 L10.756,8.46 L20.9383813,1.33195245 Z" id="Path"></path>
            </g>
        </g>
    </g>
</svg>