<?xml version="1.0" encoding="UTF-8"?>
<svg width="166px" height="169px" viewBox="0 0 166 169" version="1.1" xmlns="http://www.w3.org/2000/svg" xmlns:xlink="http://www.w3.org/1999/xlink">
    <title>icons / features / manufacturing</title>
    <defs>
        <path d="M29.0649714,132 L28.0023832,97.1678649 L53.8891636,80.3368874 L62.478418,97.1678649 L88.682261,80.65395 L97.2715153,97.1678649 L121.572983,80.3368874 L132.104603,97.1678649 L131.40954,131.365875 L29.0649714,132 Z M60.3751408,106.464559 L37.7294447,107.008231 L37.7294447,119.6974 L61.4596282,120.126815 L60.3751408,106.464559 Z M91.6634111,105.713321 L68.0998521,106.278892 L67.7066183,120.238215 L91.7176831,120.672391 L91.6634111,105.713321 Z M98.6283147,105.546696 L97.9351568,120.784744 L121.940509,121.21892 L122.317556,104.978269 L98.6283147,105.546696 Z M102.231212,51.9202711 L113.768292,51.722226 L115.473574,79.6342081 L100.576393,87.8902134 L102.231212,51.9202711 Z M68.5130808,60.3505181 L79.4331737,60.1515208 L82.0296593,79.5151906 L66.7735212,87.1713478 L68.5130808,60.3505181 Z" id="path-1"></path>
        <filter x="-32.2%" y="-36.7%" width="181.7%" height="205.9%" filterUnits="objectBoundingBox" id="filter-2">
            <feOffset dx="9" dy="13" in="SourceAlpha" result="shadowOffsetOuter1"></feOffset>
            <feGaussianBlur stdDeviation="12" in="shadowOffsetOuter1" result="shadowBlurOuter1"></feGaussianBlur>
            <feColorMatrix values="0 0 0 0 0.718834918   0 0 0 0 0.524752632   0 0 0 0 0  0 0 0 0.36 0" type="matrix" in="shadowBlurOuter1"></feColorMatrix>
        </filter>
        <path d="M27.0649714,130 L26.0023832,95.1678649 L51.8891636,78.3368874 L60.478418,95.1678649 L86.682261,78.65395 L95.2715153,95.1678649 L119.572983,78.3368874 L130.104603,95.1678649 L129.40954,129.365875 L27.0649714,130 Z M58.3751408,104.464559 L35.7294447,105.008231 L35.7294447,117.6974 L59.4596282,118.126815 L58.3751408,104.464559 Z M89.6634111,103.713321 L66.0998521,104.278892 L65.7066183,118.238215 L89.7176831,118.672391 L89.6634111,103.713321 Z M96.6283147,103.546696 L95.9351568,118.784744 L119.940509,119.21892 L120.317556,102.978269 L96.6283147,103.546696 Z M100.231212,49.9202711 L111.768292,49.722226 L113.473574,77.6342081 L98.576393,85.8902134 L100.231212,49.9202711 Z M66.5130808,58.3505181 L77.4331737,58.1515208 L80.0296593,77.5151906 L64.7735212,85.1713478 L66.5130808,58.3505181 Z" id="path-3"></path>
        <filter x="-5.3%" y="-8.1%" width="118.3%" height="123.7%" filterUnits="objectBoundingBox" id="filter-4">
            <feOffset dx="4" dy="3" in="SourceAlpha" result="shadowOffsetOuter1"></feOffset>
            <feGaussianBlur stdDeviation="2.5" in="shadowOffsetOuter1" result="shadowBlurOuter1"></feGaussianBlur>
            <feColorMatrix values="0 0 0 0 0.718834918   0 0 0 0 0.524752632   0 0 0 0 0  0 0 0 0.411822552 0" type="matrix" in="shadowBlurOuter1"></feColorMatrix>
        </filter>
    </defs>
    <g id="Главная-v8" stroke="none" stroke-width="1" fill="none" fill-rule="evenodd">
        <g id="Previews-/-Main-/-Main-(Laptop)" transform="translate(-870.000000, -1180.000000)">
            <g id="Второй-экран-(преимущества)" transform="translate(50.000000, 997.000000)">
                <g id="icons-/-features-/-manufacturing" transform="translate(820.000000, 183.000000)">
                    <ellipse id="Oval" fill="#F0F0F0" cx="60.251046" cy="60" rx="60.251046" ry="60"></ellipse>
                    <g id="Shape" fill-rule="nonzero">
                        <use fill="black" fill-opacity="1" filter="url(#filter-2)" xlink:href="#path-1"></use>
                        <use fill="#FFBA61" xlink:href="#path-1"></use>
                    </g>
                    <path d="M28.0649714,131 L27.0023832,96.1678649 L52.8891636,79.3368874 L61.478418,96.1678649 L87.682261,79.65395 L96.2715153,96.1678649 L120.572983,79.3368874 L131.104603,96.1678649 L130.40954,130.365875 L28.0649714,131 Z M59.3751408,105.464559 L36.7294447,106.008231 L36.7294447,118.6974 L60.4596282,119.126815 L59.3751408,105.464559 Z M90.6634111,104.713321 L67.0998521,105.278892 L66.7066183,119.238215 L90.7176831,119.672391 L90.6634111,104.713321 Z M97.6283147,104.546696 L96.9351568,119.784744 L120.940509,120.21892 L121.317556,103.978269 L97.6283147,104.546696 Z M101.231212,50.9202711 L112.768292,50.722226 L114.473574,78.6342081 L99.576393,86.8902134 L101.231212,50.9202711 Z M67.5130808,59.3505181 L78.4331737,59.1515208 L81.0296593,78.5151906 L65.7735212,86.1713478 L67.5130808,59.3505181 Z" id="Shape-Copy-10" fill="#FFBA61" fill-rule="nonzero"></path>
                    <g id="Shape-Copy-9" fill-rule="nonzero">
                        <use fill="black" fill-opacity="1" filter="url(#filter-4)" xlink:href="#path-3"></use>
                        <use fill="#FFD03D" xlink:href="#path-3"></use>
                    </g>
                </g>
            </g>
        </g>
    </g>
</svg>