<?xml version="1.0" encoding="UTF-8"?>
<svg width="30px" height="30px" viewBox="0 0 30 30" version="1.1" xmlns="http://www.w3.org/2000/svg" xmlns:xlink="http://www.w3.org/1999/xlink">
    <title>icons / phone / outlined</title>
    <g id="icons-/-phone-/-outlined" stroke="none" stroke-width="1" fill="none" fill-rule="evenodd">
        <g id="icons-/-phone">
            <rect id="Rectangle" fill-opacity="0" fill="#D8D8D8" x="0" y="0" width="30" height="30"></rect>
            <g id="Group" transform="translate(7.000000, 3.000000)" fill="#003776" fill-rule="nonzero">
                <path d="M4.85551601,0.00153950013 L11.144484,0.00153950013 L11.6363219,0.0137959606 C12.5537651,0.0504661079 13.0897919,0.159762063 13.5320441,0.335967933 L13.7466873,0.429620231 C13.8165179,0.462678631 13.8850754,0.497569178 13.9536914,0.534265408 C14.6055433,0.882879593 15.1171204,1.39445674 15.4657346,2.04630859 C15.5024308,2.11492458 15.5373214,2.18348206 15.5703798,2.25331273 L15.6640321,2.46795593 C15.8402379,2.91020809 15.9495339,3.44623491 15.986204,4.36367807 L15.9984605,4.85551601 C15.9994857,4.94323035 16,5.03392632 16,5.1277704 L16,18.8722296 L15.9984605,19.144484 L15.986204,19.6363219 C15.9495339,20.5537651 15.8402379,21.0897919 15.6640321,21.5320441 L15.5703798,21.7466873 C15.5373214,21.8165179 15.5024308,21.8850754 15.4657346,21.9536914 C15.1171204,22.6055433 14.6055433,23.1171204 13.9536914,23.4657346 C13.8850754,23.5024308 13.8165179,23.5373214 13.7466873,23.5703798 L13.5320441,23.6640321 C13.0897919,23.8402379 12.5537651,23.9495339 11.6363219,23.986204 L11.144484,23.9984605 C11.0567697,23.9994857 10.9660737,24 10.8722296,24 L5.1277704,24 L4.85551601,23.9984605 L4.36367807,23.986204 C3.44623491,23.9495339 2.91020809,23.8402379 2.46795593,23.6640321 L2.25331273,23.5703798 C2.18348206,23.5373214 2.11492458,23.5024308 2.04630859,23.4657346 C1.39445674,23.1171204 0.882879593,22.6055433 0.534265408,21.9536914 C0.203999337,21.3361475 0.0199936549,20.723342 0.00153950013,19.144484 L0.00153950013,4.85551601 L0.0137959606,4.36367807 C0.0504661079,3.44623491 0.159762063,2.91020809 0.335967933,2.46795593 L0.429620231,2.25331273 C0.462678631,2.18348206 0.497569178,2.11492458 0.534265408,2.04630859 C0.882879593,1.39445674 1.39445674,0.882879593 2.04630859,0.534265408 C2.66385245,0.203999337 3.27665804,0.0199936549 4.85551601,0.00153950013 Z M4.878891,2.0014029 L4.66088166,2.00491838 L4.28157848,2.01741471 C4.22418341,2.02014634 4.16953954,2.0232163 4.11740708,2.02664541 L3.83283077,2.05169651 C3.53150854,2.08633961 3.32974504,2.14062171 3.1452901,2.22168441 L2.98950631,2.2978918 C2.68619141,2.46010639 2.46010639,2.68619141 2.2978918,2.98950631 L2.22191375,3.1452245 C2.11756835,3.38365645 2.05567207,3.65617837 2.0247698,4.12808406 L2.00863428,4.47404012 L2.00092793,4.8899564 L2.0014029,19.121109 L2.00491838,19.3391183 L2.01741471,19.7184215 C2.02014634,19.7758166 2.0232163,19.8304605 2.02664541,19.8825929 L2.05169651,20.1671692 C2.08633961,20.4684915 2.14062171,20.670255 2.22168441,20.8547099 L2.2978918,21.0104937 C2.46010639,21.3138086 2.68619141,21.5398936 2.98950631,21.7021082 L3.14522493,21.7780863 C3.38365881,21.8824316 3.65619135,21.9443279 4.12815544,21.9752302 L4.47415795,21.9913657 L4.8901374,21.9990721 L11.1098626,21.9990721 L11.5258421,21.9913657 L11.8718446,21.9752302 C12.3438087,21.9443279 12.6163412,21.8824316 12.8547751,21.7780863 L13.0104937,21.7021082 C13.3138086,21.5398936 13.5398936,21.3138086 13.7021082,21.0104937 L13.7780863,20.8547751 C13.8824316,20.6163412 13.9443279,20.3438087 13.9752302,19.8718446 L13.9913657,19.5258421 L13.9990721,19.1098626 L13.9990721,4.8901374 L13.9913657,4.47415795 L13.9752302,4.12815544 C13.9443279,3.65619135 13.8824316,3.38365881 13.7780863,3.14522493 L13.7021082,2.98950631 C13.5398936,2.68619141 13.3138086,2.46010639 13.0104937,2.2978918 L12.8547751,2.22191375 C12.6163412,2.11756835 12.3438087,2.05567207 11.8718446,2.0247698 L11.5258421,2.00863429 L11.1098626,2.00092794 L4.878891,2.0014029 Z" id="Path"></path>
                <path d="M8,17 C9.1045695,17 10,17.8954305 10,19 C10,20.1045695 9.1045695,21 8,21 C6.8954305,21 6,20.1045695 6,19 C6,17.8954305 6.8954305,17 8,17 Z M8,18 C7.44771525,18 7,18.4477153 7,19 C7,19.5522847 7.44771525,20 8,20 C8.55228475,20 9,19.5522847 9,19 C9,18.4477153 8.55228475,18 8,18 Z" id="Oval"></path>
            </g>
        </g>
    </g>
</svg>