<svg width="30" height="30" viewBox="0 0 30 30" fill="none" xmlns="http://www.w3.org/2000/svg">
<path d="M11.8555 3.00153H18.1445L18.6363 3.01378C19.5538 3.05045 20.0898 3.15975 20.532 3.33595L20.7467 3.42961C20.8165 3.46267 20.8851 3.49756 20.9537 3.53425C21.6055 3.88287 22.1171 4.39444 22.4657 5.04629C22.5024 5.11491 22.5373 5.18347 22.5704 5.2533L22.664 5.46794C22.8402 5.91019 22.9495 6.44622 22.9862 7.36366L22.9985 7.8555C22.9995 7.94322 23 8.03391 23 8.12776V21.8722L22.9985 22.1445L22.9862 22.6363C22.9495 23.5538 22.8402 24.0898 22.664 24.532L22.5704 24.7467C22.5373 24.8165 22.5024 24.8851 22.4657 24.9537C22.1171 25.6055 21.6055 26.1171 20.9537 26.4657C20.8851 26.5024 20.8165 26.5373 20.7467 26.5704L20.532 26.664C20.0898 26.8402 19.5538 26.9495 18.6363 26.9862L18.1445 26.9984C18.0568 26.9995 17.9661 27 17.8722 27H12.1278L11.8555 26.9984L11.3637 26.9862C10.4462 26.9495 9.91021 26.8402 9.46796 26.664L9.25331 26.5704C9.18348 26.5373 9.11493 26.5024 9.04631 26.4657C8.39446 26.1171 7.88288 25.6055 7.53427 24.9537C7.204 24.3361 7.02 23.7233 7.00154 22.1445V7.8555L7.0138 7.36366C7.05047 6.44622 7.15976 5.91019 7.33597 5.46794L7.42962 5.2533C7.46268 5.18347 7.49757 5.11491 7.53427 5.04629C7.88288 4.39444 8.39446 3.88287 9.04631 3.53425C9.66385 3.20399 10.2767 3.01998 11.8555 3.00153ZM11.8789 5.00139L11.6609 5.0049L11.2816 5.0174C11.2242 5.02013 11.1695 5.0232 11.1174 5.02663L10.8328 5.05168C10.5315 5.08633 10.3297 5.14061 10.1453 5.22167L9.98951 5.29788C9.68619 5.46009 9.46011 5.68618 9.29789 5.98949L9.22192 6.14521C9.11757 6.38364 9.05567 6.65616 9.02477 7.12807L9.00864 7.47403L9.00093 7.88994L9.0014 22.1211L9.00492 22.3391L9.01742 22.7184C9.02015 22.7758 9.02322 22.8304 9.02665 22.8826L9.0517 23.1672C9.08634 23.4685 9.14062 23.6702 9.22169 23.8547L9.29789 24.0105C9.46011 24.3138 9.68619 24.5399 9.98951 24.7021L10.1452 24.7781C10.3837 24.8824 10.6562 24.9443 11.1282 24.9752L11.4742 24.9914L11.8901 24.9991H18.1099L18.5258 24.9914L18.8718 24.9752C19.3438 24.9443 19.6163 24.8824 19.8548 24.7781L20.0105 24.7021C20.3138 24.5399 20.5399 24.3138 20.7021 24.0105L20.7781 23.8548C20.8824 23.6163 20.9443 23.3438 20.9752 22.8718L20.9914 22.5258L20.9991 22.1098V7.89012L20.9914 7.47414L20.9752 7.12814C20.9443 6.65618 20.8824 6.38365 20.7781 6.14521L20.7021 5.98949C20.5399 5.68618 20.3138 5.46009 20.0105 5.29788L19.8548 5.2219C19.6163 5.11755 19.3438 5.05566 18.8718 5.02476L18.5258 5.00862L18.1099 5.00091L11.8789 5.00139Z" fill="#FFD800"/>
<path d="M15 20C16.1046 20 17 20.8954 17 22C17 23.1046 16.1046 24 15 24C13.8954 24 13 23.1046 13 22C13 20.8954 13.8954 20 15 20ZM15 21C14.4477 21 14 21.4477 14 22C14 22.5523 14.4477 23 15 23C15.5523 23 16 22.5523 16 22C16 21.4477 15.5523 21 15 21Z" fill="#FFD800"/>
</svg>
