<svg width="30" height="30" viewBox="0 0 30 30" fill="none" xmlns="http://www.w3.org/2000/svg">
<path d="M17.8722 3C19.6553 3 20.3018 3.18565 20.9537 3.53427C21.6055 3.88288 22.1171 4.39446 22.4657 5.04631C22.8143 5.69816 23 6.34473 23 8.12777V21.8722C23 23.6553 22.8143 24.3018 22.4657 24.9537C22.1171 25.6055 21.6055 26.1171 20.9537 26.4657C20.3018 26.8143 19.6553 27 17.8722 27H12.1278C10.3447 27 9.69816 26.8143 9.04631 26.4657C8.39446 26.1171 7.88288 25.6055 7.53427 24.9537C7.204 24.3361 7.01999 23.7233 7.00154 22.1445L7 8.12777C7 6.34473 7.18565 5.69816 7.53427 5.04631C7.88288 4.39446 8.39446 3.88288 9.04631 3.53427C9.66385 3.204 10.2767 3.01999 11.8555 3.00154L17.8722 3ZM15 20C13.8954 20 13 20.8954 13 22C13 23.1046 13.8954 24 15 24C16.1046 24 17 23.1046 17 22C17 20.8954 16.1046 20 15 20Z" fill="white"/>
</svg>
