<svg width="23" height="16" viewBox="0 0 23 16" fill="none" xmlns="http://www.w3.org/2000/svg">
<path d="M7.45569 0.279606L7.33008 0.390524L0.663416 7.05719C0.626234 7.09437 0.591238 7.13374 0.558638 7.17508L0.663416 7.05719C0.616222 7.10438 0.573307 7.15423 0.53467 7.20626L0.439119 7.35458L0.37322 7.49166L0.323652 7.63472L0.293253 7.76713L0.275225 7.92085L0.276608 8.10032L0.293264 8.23294L0.3291 8.384L0.37318 8.50825L0.41724 8.60404L0.480474 8.71478L0.565809 8.83393L0.663416 8.94281L7.33008 15.6095C7.85078 16.1302 8.695 16.1302 9.2157 15.6095C9.69634 15.1288 9.73332 14.3725 9.32662 13.8495L9.2157 13.7239L4.82665 9.33333H21.5638C22.3002 9.33333 22.8971 8.73638 22.8971 8C22.8971 7.31622 22.3824 6.75266 21.7193 6.67564L21.5638 6.66667H4.82532L9.2157 2.27614C9.7364 1.75544 9.7364 0.911223 9.2157 0.390524C8.77511 -0.0500672 8.10288 -0.117851 7.59102 0.187174L7.45569 0.279606Z" fill="#161545"/>
</svg>
