<?xml version="1.0" encoding="UTF-8"?>
<svg width="53px" height="50px" viewBox="0 0 53 50" version="1.1" xmlns="http://www.w3.org/2000/svg" xmlns:xlink="http://www.w3.org/1999/xlink">
    <title>logo / short</title>
    <g id="logo-/-short" stroke="none" stroke-width="1" fill="none" fill-rule="evenodd">
        <g id="logo-copy" fill="#003776" fill-rule="nonzero">
            <path d="M17.4808936,15.7222222 C17.4808936,13.5555556 15.6937096,11.8333333 13.5714286,11.8333333 C13.5714286,11.8333333 0,11.8333333 0,11.8333333 C0,11.8333333 0,42.1111111 0,42.1111111 C0,45.1111111 2.45737801,47.7222222 5.47325103,47.7777778 C5.47325103,47.7777778 27.0870076,47.7777778 27.0870076,47.7777778 L34.7942387,38.9444444 L17.4808936,38.9444444 L17.4808936,15.7222222 Z" id="Path"></path>
            <path d="M17.4250441,9.33333333 L32.3927102,9.33333333 C33.7330982,9.33333333 34.7942387,10.3888889 34.7942387,11.7222222 L34.7942387,32.9444444 C34.8500882,34.8888889 36.4138742,36.4444444 38.3686067,36.4444444 C38.3686067,36.4444444 52.2751323,36.4444444 52.2751323,36.4444444 L52.2751323,0.5 L25.1322751,0.5 L17.4250441,9.33333333 Z" id="Path"></path>
        </g>
    </g>
</svg>