<?xml version="1.0" encoding="UTF-8"?>
<svg width="166px" height="169px" viewBox="0 0 166 169" version="1.1" xmlns="http://www.w3.org/2000/svg" xmlns:xlink="http://www.w3.org/1999/xlink">
    <title>icons / features / speed</title>
    <defs>
        <path d="M129.854603,109.5 L127.604603,109.5 L127.604603,94.2984375 C127.604603,92.5125 126.887415,90.796875 125.62179,89.53125 L111.573353,75.4828125 C110.307728,74.2171875 108.592103,73.5 106.806165,73.5 L100.604603,73.5 L100.604603,66.75 C100.604603,63.0234375 97.581165,60 93.8546025,60 L48.8546025,60 C45.12804,60 42.1046025,63.0234375 42.1046025,66.75 L42.1046025,111.75 C42.1046025,115.476562 45.12804,118.5 48.8546025,118.5 L51.1046025,118.5 C51.1046025,125.953125 57.1514775,132 64.6046025,132 C72.0577275,132 78.1046025,125.953125 78.1046025,118.5 L96.1046025,118.5 C96.1046025,125.953125 102.151478,132 109.604603,132 C117.057728,132 123.104603,125.953125 123.104603,118.5 L129.854603,118.5 C131.092103,118.5 132.104603,117.4875 132.104603,116.25 L132.104603,111.75 C132.104603,110.5125 131.092103,109.5 129.854603,109.5 Z M64.6046025,125.25 C60.87804,125.25 57.8546025,122.226562 57.8546025,118.5 C57.8546025,114.773438 60.87804,111.75 64.6046025,111.75 C68.331165,111.75 71.3546025,114.773438 71.3546025,118.5 C71.3546025,122.226562 68.331165,125.25 64.6046025,125.25 Z M109.604603,125.25 C105.87804,125.25 102.854603,122.226562 102.854603,118.5 C102.854603,114.773438 105.87804,111.75 109.604603,111.75 C113.331165,111.75 116.354603,114.773438 116.354603,118.5 C116.354603,122.226562 113.331165,125.25 109.604603,125.25 Z M120.854603,96 L100.604603,96 L100.604603,80.25 L106.806165,80.25 L120.854603,94.2984375 L120.854603,96 Z" id="path-1"></path>
        <filter x="-37.2%" y="-41.0%" width="194.4%" height="218.1%" filterUnits="objectBoundingBox" id="filter-2">
            <feOffset dx="9" dy="13" in="SourceAlpha" result="shadowOffsetOuter1"></feOffset>
            <feGaussianBlur stdDeviation="12" in="shadowOffsetOuter1" result="shadowBlurOuter1"></feGaussianBlur>
            <feColorMatrix values="0 0 0 0 0.718834918   0 0 0 0 0.524752632   0 0 0 0 0  0 0 0 0.36 0" type="matrix" in="shadowBlurOuter1"></feColorMatrix>
        </filter>
        <path d="M127.854603,107.5 L125.604603,107.5 L125.604603,92.2984375 C125.604603,90.5125 124.887415,88.796875 123.62179,87.53125 L109.573353,73.4828125 C108.307728,72.2171875 106.592103,71.5 104.806165,71.5 L98.6046025,71.5 L98.6046025,64.75 C98.6046025,61.0234375 95.581165,58 91.8546025,58 L46.8546025,58 C43.12804,58 40.1046025,61.0234375 40.1046025,64.75 L40.1046025,109.75 C40.1046025,113.476562 43.12804,116.5 46.8546025,116.5 L49.1046025,116.5 C49.1046025,123.953125 55.1514775,130 62.6046025,130 C70.0577275,130 76.1046025,123.953125 76.1046025,116.5 L94.1046025,116.5 C94.1046025,123.953125 100.151478,130 107.604603,130 C115.057728,130 121.104603,123.953125 121.104603,116.5 L127.854603,116.5 C129.092103,116.5 130.104603,115.4875 130.104603,114.25 L130.104603,109.75 C130.104603,108.5125 129.092103,107.5 127.854603,107.5 Z M62.6046025,123.25 C58.87804,123.25 55.8546025,120.226562 55.8546025,116.5 C55.8546025,112.773438 58.87804,109.75 62.6046025,109.75 C66.331165,109.75 69.3546025,112.773438 69.3546025,116.5 C69.3546025,120.226562 66.331165,123.25 62.6046025,123.25 Z M107.604603,123.25 C103.87804,123.25 100.854603,120.226562 100.854603,116.5 C100.854603,112.773438 103.87804,109.75 107.604603,109.75 C111.331165,109.75 114.354603,112.773438 114.354603,116.5 C114.354603,120.226562 111.331165,123.25 107.604603,123.25 Z M118.854603,94 L98.6046025,94 L98.6046025,78.25 L104.806165,78.25 L118.854603,92.2984375 L118.854603,94 Z" id="path-3"></path>
        <filter x="-6.1%" y="-9.0%" width="121.1%" height="126.4%" filterUnits="objectBoundingBox" id="filter-4">
            <feOffset dx="4" dy="3" in="SourceAlpha" result="shadowOffsetOuter1"></feOffset>
            <feGaussianBlur stdDeviation="2.5" in="shadowOffsetOuter1" result="shadowBlurOuter1"></feGaussianBlur>
            <feColorMatrix values="0 0 0 0 0.718834918   0 0 0 0 0.524752632   0 0 0 0 0  0 0 0 0.411822552 0" type="matrix" in="shadowBlurOuter1"></feColorMatrix>
        </filter>
    </defs>
    <g id="Главная-v8" stroke="none" stroke-width="1" fill="none" fill-rule="evenodd">
        <g id="Previews-/-Main-/-Main-(Laptop)" transform="translate(-50.000000, -1180.000000)">
            <g id="Второй-экран-(преимущества)" transform="translate(50.000000, 997.000000)">
                <g id="icons-/-features-/-speed" transform="translate(0.000000, 183.000000)">
                    <ellipse id="Oval" fill="#F0F0F0" cx="60.251046" cy="60" rx="60.251046" ry="60"></ellipse>
                    <g id="Shape" fill-rule="nonzero">
                        <use fill="black" fill-opacity="1" filter="url(#filter-2)" xlink:href="#path-1"></use>
                        <use fill="#FFBA61" xlink:href="#path-1"></use>
                    </g>
                    <path d="M128.854603,108.5 L126.604603,108.5 L126.604603,93.2984375 C126.604603,91.5125 125.887415,89.796875 124.62179,88.53125 L110.573353,74.4828125 C109.307728,73.2171875 107.592103,72.5 105.806165,72.5 L99.6046025,72.5 L99.6046025,65.75 C99.6046025,62.0234375 96.581165,59 92.8546025,59 L47.8546025,59 C44.12804,59 41.1046025,62.0234375 41.1046025,65.75 L41.1046025,110.75 C41.1046025,114.476562 44.12804,117.5 47.8546025,117.5 L50.1046025,117.5 C50.1046025,124.953125 56.1514775,131 63.6046025,131 C71.0577275,131 77.1046025,124.953125 77.1046025,117.5 L95.1046025,117.5 C95.1046025,124.953125 101.151478,131 108.604603,131 C116.057728,131 122.104603,124.953125 122.104603,117.5 L128.854603,117.5 C130.092103,117.5 131.104603,116.4875 131.104603,115.25 L131.104603,110.75 C131.104603,109.5125 130.092103,108.5 128.854603,108.5 Z M63.6046025,124.25 C59.87804,124.25 56.8546025,121.226562 56.8546025,117.5 C56.8546025,113.773438 59.87804,110.75 63.6046025,110.75 C67.331165,110.75 70.3546025,113.773438 70.3546025,117.5 C70.3546025,121.226562 67.331165,124.25 63.6046025,124.25 Z M108.604603,124.25 C104.87804,124.25 101.854603,121.226562 101.854603,117.5 C101.854603,113.773438 104.87804,110.75 108.604603,110.75 C112.331165,110.75 115.354603,113.773438 115.354603,117.5 C115.354603,121.226562 112.331165,124.25 108.604603,124.25 Z M119.854603,95 L99.6046025,95 L99.6046025,79.25 L105.806165,79.25 L119.854603,93.2984375 L119.854603,95 Z" id="Shape-Copy-2" fill="#FFBA61" fill-rule="nonzero"></path>
                    <g id="Shape-Copy" fill-rule="nonzero">
                        <use fill="black" fill-opacity="1" filter="url(#filter-4)" xlink:href="#path-3"></use>
                        <use fill="#FFD03D" xlink:href="#path-3"></use>
                    </g>
                </g>
            </g>
        </g>
    </g>
</svg>