<svg width="30" height="30" viewBox="0 0 30 30" fill="none" xmlns="http://www.w3.org/2000/svg">
<rect width="30" height="30" fill="#D8D8D8" fill-opacity="0.01"/>
<path d="M17.6582 9.2097L17.7524 9.29289L22.7524 14.2929C22.7803 14.3208 22.8066 14.3503 22.831 14.3813L22.7524 14.2929C22.7878 14.3283 22.82 14.3657 22.849 14.4047L22.9207 14.5159L22.9701 14.6187L23.0073 14.726L23.0301 14.8253L23.0436 14.9406L23.0425 15.0752L23.03 15.1747L23.0032 15.288L22.9701 15.3812L22.9371 15.453L22.8896 15.5361L22.8256 15.6254L22.7524 15.7071L17.7524 20.7071C17.3619 21.0976 16.7287 21.0976 16.3382 20.7071C15.9777 20.3466 15.95 19.7794 16.255 19.3871L16.3382 19.2929L19.63 16H7.07715C6.52486 16 6.07715 15.5523 6.07715 15C6.07715 14.4872 6.46319 14.0645 6.96053 14.0067L7.07715 14H19.631L16.3382 10.7071C15.9477 10.3166 15.9477 9.68342 16.3382 9.29289C16.6687 8.96245 17.1728 8.91161 17.5567 9.14038L17.6582 9.2097Z" fill="#161545"/>
</svg>
