<?xml version="1.0" encoding="UTF-8"?>
<svg width="166px" height="169px" viewBox="0 0 166 169" version="1.1" xmlns="http://www.w3.org/2000/svg" xmlns:xlink="http://www.w3.org/1999/xlink">
    <title>icons / features / time</title>
    <defs>
        <path d="M87.1046025,42 C62.2457315,42 42.1046025,62.141129 42.1046025,87 C42.1046025,111.858871 62.2457315,132 87.1046025,132 C111.963473,132 132.104603,111.858871 132.104603,87 C132.104603,62.141129 111.963473,42 87.1046025,42 Z M97.4654896,105.52621 L81.4614573,93.8951613 C80.8989573,93.4778226 80.5723444,92.8245968 80.5723444,92.1350806 L80.5723444,61.5967742 C80.5723444,60.3991935 81.5521832,59.4193548 82.7497638,59.4193548 L91.4594412,59.4193548 C92.6570219,59.4193548 93.6368606,60.3991935 93.6368606,61.5967742 L93.6368606,86.5826613 L105.159038,94.9657258 C106.138877,95.6733871 106.338473,97.0342742 105.630812,98.0141129 L100.513877,105.054435 C99.8062154,106.016129 98.4453283,106.233871 97.4654896,105.52621 Z" id="path-1"></path>
        <filter x="-37.2%" y="-32.8%" width="194.4%" height="194.4%" filterUnits="objectBoundingBox" id="filter-2">
            <feOffset dx="9" dy="13" in="SourceAlpha" result="shadowOffsetOuter1"></feOffset>
            <feGaussianBlur stdDeviation="12" in="shadowOffsetOuter1" result="shadowBlurOuter1"></feGaussianBlur>
            <feColorMatrix values="0 0 0 0 0.718834918   0 0 0 0 0.524752632   0 0 0 0 0  0 0 0 0.36 0" type="matrix" in="shadowBlurOuter1"></feColorMatrix>
        </filter>
        <path d="M85.1046025,40 C60.2457315,40 40.1046025,60.141129 40.1046025,85 C40.1046025,109.858871 60.2457315,130 85.1046025,130 C109.963473,130 130.104603,109.858871 130.104603,85 C130.104603,60.141129 109.963473,40 85.1046025,40 Z M95.4654896,103.52621 L79.4614573,91.8951613 C78.8989573,91.4778226 78.5723444,90.8245968 78.5723444,90.1350806 L78.5723444,59.5967742 C78.5723444,58.3991935 79.5521832,57.4193548 80.7497638,57.4193548 L89.4594412,57.4193548 C90.6570219,57.4193548 91.6368606,58.3991935 91.6368606,59.5967742 L91.6368606,84.5826613 L103.159038,92.9657258 C104.138877,93.6733871 104.338473,95.0342742 103.630812,96.0141129 L98.5138767,103.054435 C97.8062154,104.016129 96.4453283,104.233871 95.4654896,103.52621 Z" id="path-3"></path>
        <filter x="-6.1%" y="-7.2%" width="121.1%" height="121.1%" filterUnits="objectBoundingBox" id="filter-4">
            <feOffset dx="4" dy="3" in="SourceAlpha" result="shadowOffsetOuter1"></feOffset>
            <feGaussianBlur stdDeviation="2.5" in="shadowOffsetOuter1" result="shadowBlurOuter1"></feGaussianBlur>
            <feColorMatrix values="0 0 0 0 0.718834918   0 0 0 0 0.524752632   0 0 0 0 0  0 0 0 0.411822552 0" type="matrix" in="shadowBlurOuter1"></feColorMatrix>
        </filter>
    </defs>
    <g id="Главная-v8" stroke="none" stroke-width="1" fill="none" fill-rule="evenodd">
        <g id="Previews-/-Main-/-Main-(Laptop)" transform="translate(-50.000000, -1400.000000)">
            <g id="Второй-экран-(преимущества)" transform="translate(50.000000, 997.000000)">
                <g id="icons-/-features-/-time" transform="translate(0.000000, 403.000000)">
                    <ellipse id="Oval" fill="#F0F0F0" cx="60.251046" cy="60" rx="60.251046" ry="60"></ellipse>
                    <g id="Shape" fill-rule="nonzero">
                        <use fill="black" fill-opacity="1" filter="url(#filter-2)" xlink:href="#path-1"></use>
                        <use fill="#FFBA61" xlink:href="#path-1"></use>
                    </g>
                    <path d="M86.1046025,41 C61.2457315,41 41.1046025,61.141129 41.1046025,86 C41.1046025,110.858871 61.2457315,131 86.1046025,131 C110.963473,131 131.104603,110.858871 131.104603,86 C131.104603,61.141129 110.963473,41 86.1046025,41 Z M96.4654896,104.52621 L80.4614573,92.8951613 C79.8989573,92.4778226 79.5723444,91.8245968 79.5723444,91.1350806 L79.5723444,60.5967742 C79.5723444,59.3991935 80.5521832,58.4193548 81.7497638,58.4193548 L90.4594412,58.4193548 C91.6570219,58.4193548 92.6368606,59.3991935 92.6368606,60.5967742 L92.6368606,85.5826613 L104.159038,93.9657258 C105.138877,94.6733871 105.338473,96.0342742 104.630812,97.0141129 L99.5138767,104.054435 C98.8062154,105.016129 97.4453283,105.233871 96.4654896,104.52621 Z" id="Shape-Copy-4" fill="#FFBA61" fill-rule="nonzero"></path>
                    <g id="Shape-Copy-3" fill-rule="nonzero">
                        <use fill="black" fill-opacity="1" filter="url(#filter-4)" xlink:href="#path-3"></use>
                        <use fill="#FFD03D" xlink:href="#path-3"></use>
                    </g>
                </g>
            </g>
        </g>
    </g>
</svg>