<?xml version="1.0" encoding="UTF-8"?>
<svg width="166px" height="169px" viewBox="0 0 166 169" version="1.1" xmlns="http://www.w3.org/2000/svg" xmlns:xlink="http://www.w3.org/1999/xlink">
    <title>icons / features / warehouse</title>
    <defs>
        <path d="M112.122407,132 L80.5460312,123.644686 L68.70888,131.674433 L37.0112142,123.2872 L37.4352724,92.9182499 L57.7362603,80.0214092 L63.0483871,81.4385843 L63.6776348,57.1678645 L90.7845287,48 L113.579708,61.1029421 L113.903452,83.7485615 L131.207762,88.3639561 L132.087797,119.091304 L112.122407,132 Z M108.34145,123.905504 L108.206481,104.488199 L87.1011501,99.4916079 L86.9552376,118.361741 L108.34145,123.905504 Z M76.3966446,94.5871241 L71.1656817,91.5266095 L61.3138523,98.0005645 L67.6455427,99.7642818 L76.3966446,94.5871241 Z M43.3739109,118.036174 L66.6816083,124.456324 L66.5466392,105.039019 L58.5825528,103.007187 L58.2040923,112.346499 L50.8336873,110.176962 L51.3015192,101.150451 L43.5198234,99.1651287 L43.3739109,118.036174 Z M64.6634561,87.7228531 L59.1780582,86.4497666 L46.4772873,93.869417 L53.6406789,95.8647704 L65.3793392,88.1414396 L64.6634561,87.7228531 Z M68.8748555,83.0983389 L84.65438,92.5835631 L84.65438,73.9322983 L79.2273471,71.2101183 L79.2236992,79.8745847 L73.3343061,76.2960808 L73.2102805,68.1906416 L68.9177173,66.0375204 L68.8748555,83.0983389 Z M90.0677335,53.6349582 L70.9103348,60.2128759 L75.0360106,62.2045815 L94.0657359,55.7999349 L90.0677335,53.6349582 Z M101.664129,59.9128433 L82.6079572,65.8587775 L87.1896096,68.0702638 L106.029649,62.2766258 L101.664129,59.9128433 Z M122.156627,94.00621 L112.041243,91.3250679 L103.59747,94.0016502 L117.09164,96.8615351 L117.603245,108.767083 L122.284301,105.811443 L122.156627,94.00621 Z" id="path-1"></path>
        <filter x="-35.2%" y="-35.1%" width="189.4%" height="201.2%" filterUnits="objectBoundingBox" id="filter-2">
            <feOffset dx="9" dy="13" in="SourceAlpha" result="shadowOffsetOuter1"></feOffset>
            <feGaussianBlur stdDeviation="12" in="shadowOffsetOuter1" result="shadowBlurOuter1"></feGaussianBlur>
            <feColorMatrix values="0 0 0 0 0.718834918   0 0 0 0 0.524752632   0 0 0 0 0  0 0 0 0.36 0" type="matrix" in="shadowBlurOuter1"></feColorMatrix>
        </filter>
        <path d="M110.122407,130 L78.5460312,121.644686 L66.70888,129.674433 L35.0112142,121.2872 L35.4352724,90.9182499 L55.7362603,78.0214092 L61.0483871,79.4385843 L61.6776348,55.1678645 L88.7845287,46 L111.579708,59.1029421 L111.903452,81.7485615 L129.207762,86.3639561 L130.087797,117.091304 L110.122407,130 Z M106.34145,121.905504 L106.206481,102.488199 L85.1011501,97.4916079 L84.9552376,116.361741 L106.34145,121.905504 Z M74.3966446,92.5871241 L69.1656817,89.5266095 L59.3138523,96.0005645 L65.6455427,97.7642818 L74.3966446,92.5871241 Z M41.3739109,116.036174 L64.6816083,122.456324 L64.5466392,103.039019 L56.5825528,101.007187 L56.2040923,110.346499 L48.8336873,108.176962 L49.3015192,99.1504505 L41.5198234,97.1651287 L41.3739109,116.036174 Z M62.6634561,85.7228531 L57.1780582,84.4497666 L44.4772873,91.869417 L51.6406789,93.8647704 L63.3793392,86.1414396 L62.6634561,85.7228531 Z M66.8748555,81.0983389 L82.65438,90.5835631 L82.65438,71.9322983 L77.2273471,69.2101183 L77.2236992,77.8745847 L71.3343061,74.2960808 L71.2102805,66.1906416 L66.9177173,64.0375204 L66.8748555,81.0983389 Z M88.0677335,51.6349582 L68.9103348,58.2128759 L73.0360106,60.2045815 L92.0657359,53.7999349 L88.0677335,51.6349582 Z M99.6641292,57.9128433 L80.6079572,63.8587775 L85.1896096,66.0702638 L104.029649,60.2766258 L99.6641292,57.9128433 Z M120.156627,92.00621 L110.041243,89.3250679 L101.59747,92.0016502 L115.09164,94.8615351 L115.603245,106.767083 L120.284301,103.811443 L120.156627,92.00621 Z" id="path-3"></path>
        <filter x="-5.8%" y="-7.7%" width="120.0%" height="122.6%" filterUnits="objectBoundingBox" id="filter-4">
            <feOffset dx="4" dy="3" in="SourceAlpha" result="shadowOffsetOuter1"></feOffset>
            <feGaussianBlur stdDeviation="2.5" in="shadowOffsetOuter1" result="shadowBlurOuter1"></feGaussianBlur>
            <feColorMatrix values="0 0 0 0 0.718834918   0 0 0 0 0.524752632   0 0 0 0 0  0 0 0 0.411822552 0" type="matrix" in="shadowBlurOuter1"></feColorMatrix>
        </filter>
    </defs>
    <g id="Главная-v8" stroke="none" stroke-width="1" fill="none" fill-rule="evenodd">
        <g id="Previews-/-Main-/-Main-(Laptop)" transform="translate(-460.000000, -1400.000000)">
            <g id="Второй-экран-(преимущества)" transform="translate(50.000000, 997.000000)">
                <g id="icons-/-features-/-warehouse" transform="translate(410.000000, 403.000000)">
                    <ellipse id="Oval" fill="#F0F0F0" cx="60.251046" cy="60" rx="60.251046" ry="60"></ellipse>
                    <g id="Shape" fill-rule="nonzero">
                        <use fill="black" fill-opacity="1" filter="url(#filter-2)" xlink:href="#path-1"></use>
                        <use fill="#FFBA61" xlink:href="#path-1"></use>
                    </g>
                    <path d="M111.122407,131 L79.5460312,122.644686 L67.70888,130.674433 L36.0112142,122.2872 L36.4352724,91.9182499 L56.7362603,79.0214092 L62.0483871,80.4385843 L62.6776348,56.1678645 L89.7845287,47 L112.579708,60.1029421 L112.903452,82.7485615 L130.207762,87.3639561 L131.087797,118.091304 L111.122407,131 Z M107.34145,122.905504 L107.206481,103.488199 L86.1011501,98.4916079 L85.9552376,117.361741 L107.34145,122.905504 Z M75.3966446,93.5871241 L70.1656817,90.5266095 L60.3138523,97.0005645 L66.6455427,98.7642818 L75.3966446,93.5871241 Z M42.3739109,117.036174 L65.6816083,123.456324 L65.5466392,104.039019 L57.5825528,102.007187 L57.2040923,111.346499 L49.8336873,109.176962 L50.3015192,100.150451 L42.5198234,98.1651287 L42.3739109,117.036174 Z M63.6634561,86.7228531 L58.1780582,85.4497666 L45.4772873,92.869417 L52.6406789,94.8647704 L64.3793392,87.1414396 L63.6634561,86.7228531 Z M67.8748555,82.0983389 L83.65438,91.5835631 L83.65438,72.9322983 L78.2273471,70.2101183 L78.2236992,78.8745847 L72.3343061,75.2960808 L72.2102805,67.1906416 L67.9177173,65.0375204 L67.8748555,82.0983389 Z M89.0677335,52.6349582 L69.9103348,59.2128759 L74.0360106,61.2045815 L93.0657359,54.7999349 L89.0677335,52.6349582 Z M100.664129,58.9128433 L81.6079572,64.8587775 L86.1896096,67.0702638 L105.029649,61.2766258 L100.664129,58.9128433 Z M121.156627,93.00621 L111.041243,90.3250679 L102.59747,93.0016502 L116.09164,95.8615351 L116.603245,107.767083 L121.284301,104.811443 L121.156627,93.00621 Z" id="Shape-Copy-8" fill="#FFBA61" fill-rule="nonzero"></path>
                    <g id="Shape-Copy-7" fill-rule="nonzero">
                        <use fill="black" fill-opacity="1" filter="url(#filter-4)" xlink:href="#path-3"></use>
                        <use fill="#FFD03D" xlink:href="#path-3"></use>
                    </g>
                </g>
            </g>
        </g>
    </g>
</svg>