<svg width="30" height="30" viewBox="0 0 30 30" fill="none" xmlns="http://www.w3.org/2000/svg">
<path d="M15.2176 3C8.71098 3 3.43575 8.23398 3.43575 14.691C3.43575 16.8997 4.05354 18.9655 5.12641 20.7278L3 27L9.52307 24.9277C11.211 25.8537 13.1523 26.382 15.2176 26.382C21.7251 26.382 27 21.1473 27 14.691C27 8.23398 21.7251 3 15.2176 3ZM21.0882 19.139C20.8105 19.8275 19.5544 20.4558 19.0002 20.4848C18.4466 20.5141 18.4308 20.9138 15.4125 19.6026C12.3945 18.2911 10.5788 15.1022 10.4357 14.8968C10.2924 14.6922 9.26661 13.2303 9.32195 11.7592C9.37767 10.2878 10.1833 9.59355 10.4708 9.30483C10.7581 9.01567 11.0874 8.96388 11.2884 8.9606C11.5261 8.95674 11.6801 8.95352 11.856 8.96001C12.0317 8.96667 12.2957 8.92324 12.5242 9.53107C12.7527 10.1389 13.2995 11.6327 13.3694 11.7849C13.4393 11.9373 13.4826 12.1137 13.3749 12.3094C13.2669 12.5054 13.2116 12.6279 13.0549 12.7969C12.8974 12.9659 12.7235 13.1749 12.583 13.3041C12.4263 13.4471 12.2626 13.6032 12.4273 13.909C12.592 14.2146 13.1602 15.2163 14.0258 16.0419C15.1382 17.1031 16.0976 17.4551 16.3928 17.6155C16.6888 17.7767 16.8655 17.7588 17.049 17.5656C17.2318 17.3724 17.8348 16.7204 18.0472 16.4293C18.2595 16.1375 18.4584 16.1946 18.7312 16.3043C19.0037 16.4145 20.4572 17.193 20.7533 17.3538C21.0491 17.5142 21.2468 17.5969 21.3174 17.7241C21.3881 17.8519 21.3658 18.4504 21.0882 19.139Z" fill="white"/>
</svg>
