<?xml version="1.0" encoding="UTF-8"?>
<svg width="30px" height="30px" viewBox="0 0 30 30" version="1.1" xmlns="http://www.w3.org/2000/svg" xmlns:xlink="http://www.w3.org/1999/xlink">
    <title>icons / whatsapp</title>
    <g id="icons-/-whatsapp" stroke="none" stroke-width="1" fill="none" fill-rule="evenodd">
        <g>
            <rect id="bound" fill-opacity="0" fill="#D8D8D8" x="0" y="0" width="30" height="30"></rect>
            <path d="M15.2176071,3 C8.71098214,3 3.43575,8.23398214 3.43575,14.691 C3.43575,16.89975 4.05353571,18.9654643 5.12641071,20.7278036 L3,27 L9.52307143,24.92775 C11.211,25.8537321 13.1522679,26.382 15.2176071,26.382 C21.7250893,26.382 27,21.1472679 27,14.691 C27,8.23398214 21.7250893,3 15.2176071,3 Z M21.0881897,19.1389857 C20.8104681,19.8274926 19.5544408,20.4558283 19.0002322,20.4847599 C18.446614,20.5141208 18.4308332,20.9138488 15.412503,19.6026422 C12.3945485,18.2911136 10.5788376,15.1021998 10.4356827,14.896834 C10.2924205,14.6922196 9.26661116,13.2303434 9.32195151,11.7591812 C9.37766759,10.2877506 10.1832964,9.59355399 10.4708407,9.30482874 C10.758063,9.01567408 11.0873676,8.96387638 11.2884394,8.96060212 C11.5261184,8.95673742 11.6800622,8.95351683 11.8559597,8.96001168 C12.0316962,8.96666755 12.2956766,8.92324336 12.5242307,9.53107468 C12.7526773,10.1388523 13.2994786,11.632666 13.3694189,11.7848922 C13.4393056,11.9372794 13.4825687,12.1137137 13.3748939,12.3093641 C13.266897,12.5054439 13.2116104,12.6279334 13.054929,12.7969067 C12.8973888,12.9658799 12.7235311,13.1748957 12.5830063,13.3040948 C12.4262713,13.4471423 12.2625583,13.6031796 12.4273448,13.9089739 C12.5920239,14.2145535 13.1601884,15.2163158 14.0257737,16.0418585 C15.1382167,17.1030942 16.0975746,17.4551039 16.3927947,17.615489 C16.6888199,17.7767328 16.8654689,17.7588049 17.0490421,17.5656236 C17.2317565,17.3724423 17.8348107,16.7204353 18.0472081,16.4293483 C18.2594982,16.1374562 18.4584228,16.1946215 18.7311525,16.304336 C19.0037212,16.41448 20.4572239,17.1930022 20.7533028,17.3537629 C21.0490596,17.5142016 21.2467497,17.5968633 21.3174415,17.72413 C21.3881333,17.8518797 21.3658039,18.4504251 21.0881897,19.1389857 L21.0881897,19.1389857 Z" id="Shape" fill="#161545" fill-rule="nonzero"></path>
        </g>
    </g>
</svg>